<?xml version="1.0" encoding="utf-8"?><svg xmlns="http://www.w3.org/2000/svg" xmlns:xlink="http://www.w3.org/1999/xlink" width="500" height="583.50" viewBox="0 0 500 583.50" style="fill: #003300"><rect x="15.00" y="15.00" width="471.70" height="471.70" fill="#00FF00" fill-opacity="1" /><g transform="scale(20.83) translate(0 0)"><path d="M22.7,0H1.3C0.6,0,0,0.6,0,1.3v25.3C0,27.4,0.6,28,1.3,28h21.3c0.7,0,1.3-0.6,1.3-1.3V1.3C24,0.6,23.4,0,22.7,0 z M23,22c0,0.6-0.5,1-1,1H2c-0.6,0-1-0.5-1-1V2c0-0.6,0.5-1,1-1h20c0.6,0,1,0.5,1,1V22z" />
                            
                        </g><g transform="scale(0.85) translate(43.48 43.48)"><svg xmlns="http://www.w3.org/2000/svg" version="1.1" width="500" height="500" viewBox="0 0 500 500"><g transform="scale(13.514)"><g transform="translate(0,0)"><path d="M10.95 0.5A0.45 0.45 0 0 1 10.5 0.95A0.45 0.45 0 0 1 10.05 0.5A0.45 0.45 0 0 1 10.5 0.05A0.45 0.45 0 0 1 10.95 0.5ZM12.95 0.5A0.45 0.45 0 0 1 12.5 0.95A0.45 0.45 0 0 1 12.05 0.5A0.45 0.45 0 0 1 12.5 0.05A0.45 0.45 0 0 1 12.95 0.5ZM14.95 0.5A0.45 0.45 0 0 1 14.5 0.95A0.45 0.45 0 0 1 14.05 0.5A0.45 0.45 0 0 1 14.5 0.05A0.45 0.45 0 0 1 14.95 0.5ZM16.95 0.5A0.45 0.45 0 0 1 16.5 0.95A0.45 0.45 0 0 1 16.05 0.5A0.45 0.45 0 0 1 16.5 0.05A0.45 0.45 0 0 1 16.95 0.5ZM21.95 0.5A0.45 0.45 0 0 1 21.5 0.95A0.45 0.45 0 0 1 21.05 0.5A0.45 0.45 0 0 1 21.5 0.05A0.45 0.45 0 0 1 21.95 0.5ZM26.95 0.5A0.45 0.45 0 0 1 26.5 0.95A0.45 0.45 0 0 1 26.05 0.5A0.45 0.45 0 0 1 26.5 0.05A0.45 0.45 0 0 1 26.95 0.5ZM28.95 0.5A0.45 0.45 0 0 1 28.5 0.95A0.45 0.45 0 0 1 28.05 0.5A0.45 0.45 0 0 1 28.5 0.05A0.45 0.45 0 0 1 28.95 0.5ZM8.95 1.5A0.45 0.45 0 0 1 8.5 1.95A0.45 0.45 0 0 1 8.05 1.5A0.45 0.45 0 0 1 8.5 1.05A0.45 0.45 0 0 1 8.95 1.5ZM10.95 1.5A0.45 0.45 0 0 1 10.5 1.95A0.45 0.45 0 0 1 10.05 1.5A0.45 0.45 0 0 1 10.5 1.05A0.45 0.45 0 0 1 10.95 1.5ZM13.95 1.5A0.45 0.45 0 0 1 13.5 1.95A0.45 0.45 0 0 1 13.05 1.5A0.45 0.45 0 0 1 13.5 1.05A0.45 0.45 0 0 1 13.95 1.5ZM14.95 1.5A0.45 0.45 0 0 1 14.5 1.95A0.45 0.45 0 0 1 14.05 1.5A0.45 0.45 0 0 1 14.5 1.05A0.45 0.45 0 0 1 14.95 1.5ZM17.95 1.5A0.45 0.45 0 0 1 17.5 1.95A0.45 0.45 0 0 1 17.05 1.5A0.45 0.45 0 0 1 17.5 1.05A0.45 0.45 0 0 1 17.95 1.5ZM19.95 1.5A0.45 0.45 0 0 1 19.5 1.95A0.45 0.45 0 0 1 19.05 1.5A0.45 0.45 0 0 1 19.5 1.05A0.45 0.45 0 0 1 19.95 1.5ZM23.95 1.5A0.45 0.45 0 0 1 23.5 1.95A0.45 0.45 0 0 1 23.05 1.5A0.45 0.45 0 0 1 23.5 1.05A0.45 0.45 0 0 1 23.95 1.5ZM24.95 1.5A0.45 0.45 0 0 1 24.5 1.95A0.45 0.45 0 0 1 24.05 1.5A0.45 0.45 0 0 1 24.5 1.05A0.45 0.45 0 0 1 24.95 1.5ZM25.95 1.5A0.45 0.45 0 0 1 25.5 1.95A0.45 0.45 0 0 1 25.05 1.5A0.45 0.45 0 0 1 25.5 1.05A0.45 0.45 0 0 1 25.95 1.5ZM27.95 1.5A0.45 0.45 0 0 1 27.5 1.95A0.45 0.45 0 0 1 27.05 1.5A0.45 0.45 0 0 1 27.5 1.05A0.45 0.45 0 0 1 27.95 1.5ZM12.95 2.5A0.45 0.45 0 0 1 12.5 2.95A0.45 0.45 0 0 1 12.05 2.5A0.45 0.45 0 0 1 12.5 2.05A0.45 0.45 0 0 1 12.95 2.5ZM14.95 2.5A0.45 0.45 0 0 1 14.5 2.95A0.45 0.45 0 0 1 14.05 2.5A0.45 0.45 0 0 1 14.5 2.05A0.45 0.45 0 0 1 14.95 2.5ZM19.95 2.5A0.45 0.45 0 0 1 19.5 2.95A0.45 0.45 0 0 1 19.05 2.5A0.45 0.45 0 0 1 19.5 2.05A0.45 0.45 0 0 1 19.95 2.5ZM20.95 2.5A0.45 0.45 0 0 1 20.5 2.95A0.45 0.45 0 0 1 20.05 2.5A0.45 0.45 0 0 1 20.5 2.05A0.45 0.45 0 0 1 20.95 2.5ZM22.95 2.5A0.45 0.45 0 0 1 22.5 2.95A0.45 0.45 0 0 1 22.05 2.5A0.45 0.45 0 0 1 22.5 2.05A0.45 0.45 0 0 1 22.95 2.5ZM23.95 2.5A0.45 0.45 0 0 1 23.5 2.95A0.45 0.45 0 0 1 23.05 2.5A0.45 0.45 0 0 1 23.5 2.05A0.45 0.45 0 0 1 23.95 2.5ZM28.95 2.5A0.45 0.45 0 0 1 28.5 2.95A0.45 0.45 0 0 1 28.05 2.5A0.45 0.45 0 0 1 28.5 2.05A0.45 0.45 0 0 1 28.95 2.5ZM8.95 3.5A0.45 0.45 0 0 1 8.5 3.95A0.45 0.45 0 0 1 8.05 3.5A0.45 0.45 0 0 1 8.5 3.05A0.45 0.45 0 0 1 8.95 3.5ZM9.95 3.5A0.45 0.45 0 0 1 9.5 3.95A0.45 0.45 0 0 1 9.05 3.5A0.45 0.45 0 0 1 9.5 3.05A0.45 0.45 0 0 1 9.95 3.5ZM10.95 3.5A0.45 0.45 0 0 1 10.5 3.95A0.45 0.45 0 0 1 10.05 3.5A0.45 0.45 0 0 1 10.5 3.05A0.45 0.45 0 0 1 10.95 3.5ZM12.95 3.5A0.45 0.45 0 0 1 12.5 3.95A0.45 0.45 0 0 1 12.05 3.5A0.45 0.45 0 0 1 12.5 3.05A0.45 0.45 0 0 1 12.95 3.5ZM14.95 3.5A0.45 0.45 0 0 1 14.5 3.95A0.45 0.45 0 0 1 14.05 3.5A0.45 0.45 0 0 1 14.5 3.05A0.45 0.45 0 0 1 14.95 3.5ZM15.95 3.5A0.45 0.45 0 0 1 15.5 3.95A0.45 0.45 0 0 1 15.05 3.5A0.45 0.45 0 0 1 15.5 3.05A0.45 0.45 0 0 1 15.95 3.5ZM20.95 3.5A0.45 0.45 0 0 1 20.5 3.95A0.45 0.45 0 0 1 20.05 3.5A0.45 0.45 0 0 1 20.5 3.05A0.45 0.45 0 0 1 20.95 3.5ZM21.95 3.5A0.45 0.45 0 0 1 21.5 3.95A0.45 0.45 0 0 1 21.05 3.5A0.45 0.45 0 0 1 21.5 3.05A0.45 0.45 0 0 1 21.95 3.5ZM22.95 3.5A0.45 0.45 0 0 1 22.5 3.95A0.45 0.45 0 0 1 22.05 3.5A0.45 0.45 0 0 1 22.5 3.05A0.45 0.45 0 0 1 22.95 3.5ZM24.95 3.5A0.45 0.45 0 0 1 24.5 3.95A0.45 0.45 0 0 1 24.05 3.5A0.45 0.45 0 0 1 24.5 3.05A0.45 0.45 0 0 1 24.95 3.5ZM27.95 3.5A0.45 0.45 0 0 1 27.5 3.95A0.45 0.45 0 0 1 27.05 3.5A0.45 0.45 0 0 1 27.5 3.05A0.45 0.45 0 0 1 27.95 3.5ZM28.95 3.5A0.45 0.45 0 0 1 28.5 3.95A0.45 0.45 0 0 1 28.05 3.5A0.45 0.45 0 0 1 28.5 3.05A0.45 0.45 0 0 1 28.95 3.5ZM9.95 4.5A0.45 0.45 0 0 1 9.5 4.95A0.45 0.45 0 0 1 9.05 4.5A0.45 0.45 0 0 1 9.5 4.05A0.45 0.45 0 0 1 9.95 4.5ZM15.95 4.5A0.45 0.45 0 0 1 15.5 4.95A0.45 0.45 0 0 1 15.05 4.5A0.45 0.45 0 0 1 15.5 4.05A0.45 0.45 0 0 1 15.95 4.5ZM16.95 4.5A0.45 0.45 0 0 1 16.5 4.95A0.45 0.45 0 0 1 16.05 4.5A0.45 0.45 0 0 1 16.5 4.05A0.45 0.45 0 0 1 16.95 4.5ZM18.95 4.5A0.45 0.45 0 0 1 18.5 4.95A0.45 0.45 0 0 1 18.05 4.5A0.45 0.45 0 0 1 18.5 4.05A0.45 0.45 0 0 1 18.95 4.5ZM19.95 4.5A0.45 0.45 0 0 1 19.5 4.95A0.45 0.45 0 0 1 19.05 4.5A0.45 0.45 0 0 1 19.5 4.05A0.45 0.45 0 0 1 19.95 4.5ZM20.95 4.5A0.45 0.45 0 0 1 20.5 4.95A0.45 0.45 0 0 1 20.05 4.5A0.45 0.45 0 0 1 20.5 4.05A0.45 0.45 0 0 1 20.95 4.5ZM21.95 4.5A0.45 0.45 0 0 1 21.5 4.95A0.45 0.45 0 0 1 21.05 4.5A0.45 0.45 0 0 1 21.5 4.05A0.45 0.45 0 0 1 21.95 4.5ZM22.95 4.5A0.45 0.45 0 0 1 22.5 4.95A0.45 0.45 0 0 1 22.05 4.5A0.45 0.45 0 0 1 22.5 4.05A0.45 0.45 0 0 1 22.95 4.5ZM23.95 4.5A0.45 0.45 0 0 1 23.5 4.95A0.45 0.45 0 0 1 23.05 4.5A0.45 0.45 0 0 1 23.5 4.05A0.45 0.45 0 0 1 23.95 4.5ZM24.95 4.5A0.45 0.45 0 0 1 24.5 4.95A0.45 0.45 0 0 1 24.05 4.5A0.45 0.45 0 0 1 24.5 4.05A0.45 0.45 0 0 1 24.95 4.5ZM27.95 4.5A0.45 0.45 0 0 1 27.5 4.95A0.45 0.45 0 0 1 27.05 4.5A0.45 0.45 0 0 1 27.5 4.05A0.45 0.45 0 0 1 27.95 4.5ZM8.95 5.5A0.45 0.45 0 0 1 8.5 5.95A0.45 0.45 0 0 1 8.05 5.5A0.45 0.45 0 0 1 8.5 5.05A0.45 0.45 0 0 1 8.95 5.5ZM9.95 5.5A0.45 0.45 0 0 1 9.5 5.95A0.45 0.45 0 0 1 9.05 5.5A0.45 0.45 0 0 1 9.5 5.05A0.45 0.45 0 0 1 9.95 5.5ZM11.95 5.5A0.45 0.45 0 0 1 11.5 5.95A0.45 0.45 0 0 1 11.05 5.5A0.45 0.45 0 0 1 11.5 5.05A0.45 0.45 0 0 1 11.95 5.5ZM12.95 5.5A0.45 0.45 0 0 1 12.5 5.95A0.45 0.45 0 0 1 12.05 5.5A0.45 0.45 0 0 1 12.5 5.05A0.45 0.45 0 0 1 12.95 5.5ZM13.95 5.5A0.45 0.45 0 0 1 13.5 5.95A0.45 0.45 0 0 1 13.05 5.5A0.45 0.45 0 0 1 13.5 5.05A0.45 0.45 0 0 1 13.95 5.5ZM14.95 5.5A0.45 0.45 0 0 1 14.5 5.95A0.45 0.45 0 0 1 14.05 5.5A0.45 0.45 0 0 1 14.5 5.05A0.45 0.45 0 0 1 14.95 5.5ZM17.95 5.5A0.45 0.45 0 0 1 17.5 5.95A0.45 0.45 0 0 1 17.05 5.5A0.45 0.45 0 0 1 17.5 5.05A0.45 0.45 0 0 1 17.95 5.5ZM22.95 5.5A0.45 0.45 0 0 1 22.5 5.95A0.45 0.45 0 0 1 22.05 5.5A0.45 0.45 0 0 1 22.5 5.05A0.45 0.45 0 0 1 22.95 5.5ZM26.95 5.5A0.45 0.45 0 0 1 26.5 5.95A0.45 0.45 0 0 1 26.05 5.5A0.45 0.45 0 0 1 26.5 5.05A0.45 0.45 0 0 1 26.95 5.5ZM27.95 5.5A0.45 0.45 0 0 1 27.5 5.95A0.45 0.45 0 0 1 27.05 5.5A0.45 0.45 0 0 1 27.5 5.05A0.45 0.45 0 0 1 27.95 5.5ZM8.95 6.5A0.45 0.45 0 0 1 8.5 6.95A0.45 0.45 0 0 1 8.05 6.5A0.45 0.45 0 0 1 8.5 6.05A0.45 0.45 0 0 1 8.95 6.5ZM10.95 6.5A0.45 0.45 0 0 1 10.5 6.95A0.45 0.45 0 0 1 10.05 6.5A0.45 0.45 0 0 1 10.5 6.05A0.45 0.45 0 0 1 10.95 6.5ZM12.95 6.5A0.45 0.45 0 0 1 12.5 6.95A0.45 0.45 0 0 1 12.05 6.5A0.45 0.45 0 0 1 12.5 6.05A0.45 0.45 0 0 1 12.95 6.5ZM14.95 6.5A0.45 0.45 0 0 1 14.5 6.95A0.45 0.45 0 0 1 14.05 6.5A0.45 0.45 0 0 1 14.5 6.05A0.45 0.45 0 0 1 14.95 6.5ZM16.95 6.5A0.45 0.45 0 0 1 16.5 6.95A0.45 0.45 0 0 1 16.05 6.5A0.45 0.45 0 0 1 16.5 6.05A0.45 0.45 0 0 1 16.95 6.5ZM18.95 6.5A0.45 0.45 0 0 1 18.5 6.95A0.45 0.45 0 0 1 18.05 6.5A0.45 0.45 0 0 1 18.5 6.05A0.45 0.45 0 0 1 18.95 6.5ZM20.95 6.5A0.45 0.45 0 0 1 20.5 6.95A0.45 0.45 0 0 1 20.05 6.5A0.45 0.45 0 0 1 20.5 6.05A0.45 0.45 0 0 1 20.95 6.5ZM22.95 6.5A0.45 0.45 0 0 1 22.5 6.95A0.45 0.45 0 0 1 22.05 6.5A0.45 0.45 0 0 1 22.5 6.05A0.45 0.45 0 0 1 22.95 6.5ZM24.95 6.5A0.45 0.45 0 0 1 24.5 6.95A0.45 0.45 0 0 1 24.05 6.5A0.45 0.45 0 0 1 24.5 6.05A0.45 0.45 0 0 1 24.95 6.5ZM26.95 6.5A0.45 0.45 0 0 1 26.5 6.95A0.45 0.45 0 0 1 26.05 6.5A0.45 0.45 0 0 1 26.5 6.05A0.45 0.45 0 0 1 26.95 6.5ZM28.95 6.5A0.45 0.45 0 0 1 28.5 6.95A0.45 0.45 0 0 1 28.05 6.5A0.45 0.45 0 0 1 28.5 6.05A0.45 0.45 0 0 1 28.95 6.5ZM9.95 7.5A0.45 0.45 0 0 1 9.5 7.95A0.45 0.45 0 0 1 9.05 7.5A0.45 0.45 0 0 1 9.5 7.05A0.45 0.45 0 0 1 9.95 7.5ZM10.95 7.5A0.45 0.45 0 0 1 10.5 7.95A0.45 0.45 0 0 1 10.05 7.5A0.45 0.45 0 0 1 10.5 7.05A0.45 0.45 0 0 1 10.95 7.5ZM11.95 7.5A0.45 0.45 0 0 1 11.5 7.95A0.45 0.45 0 0 1 11.05 7.5A0.45 0.45 0 0 1 11.5 7.05A0.45 0.45 0 0 1 11.95 7.5ZM13.95 7.5A0.45 0.45 0 0 1 13.5 7.95A0.45 0.45 0 0 1 13.05 7.5A0.45 0.45 0 0 1 13.5 7.05A0.45 0.45 0 0 1 13.95 7.5ZM16.95 7.5A0.45 0.45 0 0 1 16.5 7.95A0.45 0.45 0 0 1 16.05 7.5A0.45 0.45 0 0 1 16.5 7.05A0.45 0.45 0 0 1 16.95 7.5ZM17.95 7.5A0.45 0.45 0 0 1 17.5 7.95A0.45 0.45 0 0 1 17.05 7.5A0.45 0.45 0 0 1 17.5 7.05A0.45 0.45 0 0 1 17.95 7.5ZM18.95 7.5A0.45 0.45 0 0 1 18.5 7.95A0.45 0.45 0 0 1 18.05 7.5A0.45 0.45 0 0 1 18.5 7.05A0.45 0.45 0 0 1 18.95 7.5ZM19.95 7.5A0.45 0.45 0 0 1 19.5 7.95A0.45 0.45 0 0 1 19.05 7.5A0.45 0.45 0 0 1 19.5 7.05A0.45 0.45 0 0 1 19.95 7.5ZM20.95 7.5A0.45 0.45 0 0 1 20.5 7.95A0.45 0.45 0 0 1 20.05 7.5A0.45 0.45 0 0 1 20.5 7.05A0.45 0.45 0 0 1 20.95 7.5ZM23.95 7.5A0.45 0.45 0 0 1 23.5 7.95A0.45 0.45 0 0 1 23.05 7.5A0.45 0.45 0 0 1 23.5 7.05A0.45 0.45 0 0 1 23.95 7.5ZM25.95 7.5A0.45 0.45 0 0 1 25.5 7.95A0.45 0.45 0 0 1 25.05 7.5A0.45 0.45 0 0 1 25.5 7.05A0.45 0.45 0 0 1 25.95 7.5ZM28.95 7.5A0.45 0.45 0 0 1 28.5 7.95A0.45 0.45 0 0 1 28.05 7.5A0.45 0.45 0 0 1 28.5 7.05A0.45 0.45 0 0 1 28.95 7.5ZM0.95 8.5A0.45 0.45 0 0 1 0.5 8.95A0.45 0.45 0 0 1 0.05 8.5A0.45 0.45 0 0 1 0.5 8.05A0.45 0.45 0 0 1 0.95 8.5ZM1.95 8.5A0.45 0.45 0 0 1 1.5 8.95A0.45 0.45 0 0 1 1.05 8.5A0.45 0.45 0 0 1 1.5 8.05A0.45 0.45 0 0 1 1.95 8.5ZM2.95 8.5A0.45 0.45 0 0 1 2.5 8.95A0.45 0.45 0 0 1 2.05 8.5A0.45 0.45 0 0 1 2.5 8.05A0.45 0.45 0 0 1 2.95 8.5ZM3.95 8.5A0.45 0.45 0 0 1 3.5 8.95A0.45 0.45 0 0 1 3.05 8.5A0.45 0.45 0 0 1 3.5 8.05A0.45 0.45 0 0 1 3.95 8.5ZM4.95 8.5A0.45 0.45 0 0 1 4.5 8.95A0.45 0.45 0 0 1 4.05 8.5A0.45 0.45 0 0 1 4.5 8.05A0.45 0.45 0 0 1 4.95 8.5ZM6.95 8.5A0.45 0.45 0 0 1 6.5 8.95A0.45 0.45 0 0 1 6.05 8.5A0.45 0.45 0 0 1 6.5 8.05A0.45 0.45 0 0 1 6.95 8.5ZM7.95 8.5A0.45 0.45 0 0 1 7.5 8.95A0.45 0.45 0 0 1 7.05 8.5A0.45 0.45 0 0 1 7.5 8.05A0.45 0.45 0 0 1 7.95 8.5ZM8.95 8.5A0.45 0.45 0 0 1 8.5 8.95A0.45 0.45 0 0 1 8.05 8.5A0.45 0.45 0 0 1 8.5 8.05A0.45 0.45 0 0 1 8.95 8.5ZM9.95 8.5A0.45 0.45 0 0 1 9.5 8.95A0.45 0.45 0 0 1 9.05 8.5A0.45 0.45 0 0 1 9.5 8.05A0.45 0.45 0 0 1 9.95 8.5ZM11.95 8.5A0.45 0.45 0 0 1 11.5 8.95A0.45 0.45 0 0 1 11.05 8.5A0.45 0.45 0 0 1 11.5 8.05A0.45 0.45 0 0 1 11.95 8.5ZM15.95 8.5A0.45 0.45 0 0 1 15.5 8.95A0.45 0.45 0 0 1 15.05 8.5A0.45 0.45 0 0 1 15.5 8.05A0.45 0.45 0 0 1 15.95 8.5ZM18.95 8.5A0.45 0.45 0 0 1 18.5 8.95A0.45 0.45 0 0 1 18.05 8.5A0.45 0.45 0 0 1 18.5 8.05A0.45 0.45 0 0 1 18.95 8.5ZM21.95 8.5A0.45 0.45 0 0 1 21.5 8.95A0.45 0.45 0 0 1 21.05 8.5A0.45 0.45 0 0 1 21.5 8.05A0.45 0.45 0 0 1 21.95 8.5ZM25.95 8.5A0.45 0.45 0 0 1 25.5 8.95A0.45 0.45 0 0 1 25.05 8.5A0.45 0.45 0 0 1 25.5 8.05A0.45 0.45 0 0 1 25.95 8.5ZM27.95 8.5A0.45 0.45 0 0 1 27.5 8.95A0.45 0.45 0 0 1 27.05 8.5A0.45 0.45 0 0 1 27.5 8.05A0.45 0.45 0 0 1 27.95 8.5ZM29.95 8.5A0.45 0.45 0 0 1 29.5 8.95A0.45 0.45 0 0 1 29.05 8.5A0.45 0.45 0 0 1 29.5 8.05A0.45 0.45 0 0 1 29.95 8.5ZM31.95 8.5A0.45 0.45 0 0 1 31.5 8.95A0.45 0.45 0 0 1 31.05 8.5A0.45 0.45 0 0 1 31.5 8.05A0.45 0.45 0 0 1 31.95 8.5ZM33.95 8.5A0.45 0.45 0 0 1 33.5 8.95A0.45 0.45 0 0 1 33.05 8.5A0.45 0.45 0 0 1 33.5 8.05A0.45 0.45 0 0 1 33.95 8.5ZM35.95 8.5A0.45 0.45 0 0 1 35.5 8.95A0.45 0.45 0 0 1 35.05 8.5A0.45 0.45 0 0 1 35.5 8.05A0.45 0.45 0 0 1 35.95 8.5ZM1.95 9.5A0.45 0.45 0 0 1 1.5 9.95A0.45 0.45 0 0 1 1.05 9.5A0.45 0.45 0 0 1 1.5 9.05A0.45 0.45 0 0 1 1.95 9.5ZM7.95 9.5A0.45 0.45 0 0 1 7.5 9.95A0.45 0.45 0 0 1 7.05 9.5A0.45 0.45 0 0 1 7.5 9.05A0.45 0.45 0 0 1 7.95 9.5ZM8.95 9.5A0.45 0.45 0 0 1 8.5 9.95A0.45 0.45 0 0 1 8.05 9.5A0.45 0.45 0 0 1 8.5 9.05A0.45 0.45 0 0 1 8.95 9.5ZM9.95 9.5A0.45 0.45 0 0 1 9.5 9.95A0.45 0.45 0 0 1 9.05 9.5A0.45 0.45 0 0 1 9.5 9.05A0.45 0.45 0 0 1 9.95 9.5ZM10.95 9.5A0.45 0.45 0 0 1 10.5 9.95A0.45 0.45 0 0 1 10.05 9.5A0.45 0.45 0 0 1 10.5 9.05A0.45 0.45 0 0 1 10.95 9.5ZM12.95 9.5A0.45 0.45 0 0 1 12.5 9.95A0.45 0.45 0 0 1 12.05 9.5A0.45 0.45 0 0 1 12.5 9.05A0.45 0.45 0 0 1 12.95 9.5ZM15.95 9.5A0.45 0.45 0 0 1 15.5 9.95A0.45 0.45 0 0 1 15.05 9.5A0.45 0.45 0 0 1 15.5 9.05A0.45 0.45 0 0 1 15.95 9.5ZM16.95 9.5A0.45 0.45 0 0 1 16.5 9.95A0.45 0.45 0 0 1 16.05 9.5A0.45 0.45 0 0 1 16.5 9.05A0.45 0.45 0 0 1 16.95 9.5ZM18.95 9.5A0.45 0.45 0 0 1 18.5 9.95A0.45 0.45 0 0 1 18.05 9.5A0.45 0.45 0 0 1 18.5 9.05A0.45 0.45 0 0 1 18.95 9.5ZM19.95 9.5A0.45 0.45 0 0 1 19.5 9.95A0.45 0.45 0 0 1 19.05 9.5A0.45 0.45 0 0 1 19.5 9.05A0.45 0.45 0 0 1 19.95 9.5ZM20.95 9.5A0.45 0.45 0 0 1 20.5 9.95A0.45 0.45 0 0 1 20.05 9.5A0.45 0.45 0 0 1 20.5 9.05A0.45 0.45 0 0 1 20.95 9.5ZM21.95 9.5A0.45 0.45 0 0 1 21.5 9.95A0.45 0.45 0 0 1 21.05 9.5A0.45 0.45 0 0 1 21.5 9.05A0.45 0.45 0 0 1 21.95 9.5ZM26.95 9.5A0.45 0.45 0 0 1 26.5 9.95A0.45 0.45 0 0 1 26.05 9.5A0.45 0.45 0 0 1 26.5 9.05A0.45 0.45 0 0 1 26.95 9.5ZM28.95 9.5A0.45 0.45 0 0 1 28.5 9.95A0.45 0.45 0 0 1 28.05 9.5A0.45 0.45 0 0 1 28.5 9.05A0.45 0.45 0 0 1 28.95 9.5ZM29.95 9.5A0.45 0.45 0 0 1 29.5 9.95A0.45 0.45 0 0 1 29.05 9.5A0.45 0.45 0 0 1 29.5 9.05A0.45 0.45 0 0 1 29.95 9.5ZM30.95 9.5A0.45 0.45 0 0 1 30.5 9.95A0.45 0.45 0 0 1 30.05 9.5A0.45 0.45 0 0 1 30.5 9.05A0.45 0.45 0 0 1 30.95 9.5ZM33.95 9.5A0.45 0.45 0 0 1 33.5 9.95A0.45 0.45 0 0 1 33.05 9.5A0.45 0.45 0 0 1 33.5 9.05A0.45 0.45 0 0 1 33.95 9.5ZM0.95 10.5A0.45 0.45 0 0 1 0.5 10.95A0.45 0.45 0 0 1 0.05 10.5A0.45 0.45 0 0 1 0.5 10.05A0.45 0.45 0 0 1 0.95 10.5ZM1.95 10.5A0.45 0.45 0 0 1 1.5 10.95A0.45 0.45 0 0 1 1.05 10.5A0.45 0.45 0 0 1 1.5 10.05A0.45 0.45 0 0 1 1.95 10.5ZM3.95 10.5A0.45 0.45 0 0 1 3.5 10.95A0.45 0.45 0 0 1 3.05 10.5A0.45 0.45 0 0 1 3.5 10.05A0.45 0.45 0 0 1 3.95 10.5ZM4.95 10.5A0.45 0.45 0 0 1 4.5 10.95A0.45 0.45 0 0 1 4.05 10.5A0.45 0.45 0 0 1 4.5 10.05A0.45 0.45 0 0 1 4.95 10.5ZM5.95 10.5A0.45 0.45 0 0 1 5.5 10.95A0.45 0.45 0 0 1 5.05 10.5A0.45 0.45 0 0 1 5.5 10.05A0.45 0.45 0 0 1 5.95 10.5ZM6.95 10.5A0.45 0.45 0 0 1 6.5 10.95A0.45 0.45 0 0 1 6.05 10.5A0.45 0.45 0 0 1 6.5 10.05A0.45 0.45 0 0 1 6.95 10.5ZM7.95 10.5A0.45 0.45 0 0 1 7.5 10.95A0.45 0.45 0 0 1 7.05 10.5A0.45 0.45 0 0 1 7.5 10.05A0.45 0.45 0 0 1 7.95 10.5ZM10.95 10.5A0.45 0.45 0 0 1 10.5 10.95A0.45 0.45 0 0 1 10.05 10.5A0.45 0.45 0 0 1 10.5 10.05A0.45 0.45 0 0 1 10.95 10.5ZM13.95 10.5A0.45 0.45 0 0 1 13.5 10.95A0.45 0.45 0 0 1 13.05 10.5A0.45 0.45 0 0 1 13.5 10.05A0.45 0.45 0 0 1 13.95 10.5ZM14.95 10.5A0.45 0.45 0 0 1 14.5 10.95A0.45 0.45 0 0 1 14.05 10.5A0.45 0.45 0 0 1 14.5 10.05A0.45 0.45 0 0 1 14.95 10.5ZM17.95 10.5A0.45 0.45 0 0 1 17.5 10.95A0.45 0.45 0 0 1 17.05 10.5A0.45 0.45 0 0 1 17.5 10.05A0.45 0.45 0 0 1 17.95 10.5ZM19.95 10.5A0.45 0.45 0 0 1 19.5 10.95A0.45 0.45 0 0 1 19.05 10.5A0.45 0.45 0 0 1 19.5 10.05A0.45 0.45 0 0 1 19.95 10.5ZM22.95 10.5A0.45 0.45 0 0 1 22.5 10.95A0.45 0.45 0 0 1 22.05 10.5A0.45 0.45 0 0 1 22.5 10.05A0.45 0.45 0 0 1 22.95 10.5ZM25.95 10.5A0.45 0.45 0 0 1 25.5 10.95A0.45 0.45 0 0 1 25.05 10.5A0.45 0.45 0 0 1 25.5 10.05A0.45 0.45 0 0 1 25.95 10.5ZM26.95 10.5A0.45 0.45 0 0 1 26.5 10.95A0.45 0.45 0 0 1 26.05 10.5A0.45 0.45 0 0 1 26.5 10.05A0.45 0.45 0 0 1 26.95 10.5ZM29.95 10.5A0.45 0.45 0 0 1 29.5 10.95A0.45 0.45 0 0 1 29.05 10.5A0.45 0.45 0 0 1 29.5 10.05A0.45 0.45 0 0 1 29.95 10.5ZM30.95 10.5A0.45 0.45 0 0 1 30.5 10.95A0.45 0.45 0 0 1 30.05 10.5A0.45 0.45 0 0 1 30.5 10.05A0.45 0.45 0 0 1 30.95 10.5ZM32.95 10.5A0.45 0.45 0 0 1 32.5 10.95A0.45 0.45 0 0 1 32.05 10.5A0.45 0.45 0 0 1 32.5 10.05A0.45 0.45 0 0 1 32.95 10.5ZM33.95 10.5A0.45 0.45 0 0 1 33.5 10.95A0.45 0.45 0 0 1 33.05 10.5A0.45 0.45 0 0 1 33.5 10.05A0.45 0.45 0 0 1 33.95 10.5ZM34.95 10.5A0.45 0.45 0 0 1 34.5 10.95A0.45 0.45 0 0 1 34.05 10.5A0.45 0.45 0 0 1 34.5 10.05A0.45 0.45 0 0 1 34.95 10.5ZM1.95 11.5A0.45 0.45 0 0 1 1.5 11.95A0.45 0.45 0 0 1 1.05 11.5A0.45 0.45 0 0 1 1.5 11.05A0.45 0.45 0 0 1 1.95 11.5ZM3.95 11.5A0.45 0.45 0 0 1 3.5 11.95A0.45 0.45 0 0 1 3.05 11.5A0.45 0.45 0 0 1 3.5 11.05A0.45 0.45 0 0 1 3.95 11.5ZM12.95 11.5A0.45 0.45 0 0 1 12.5 11.95A0.45 0.45 0 0 1 12.05 11.5A0.45 0.45 0 0 1 12.5 11.05A0.45 0.45 0 0 1 12.95 11.5ZM16.95 11.5A0.45 0.45 0 0 1 16.5 11.95A0.45 0.45 0 0 1 16.05 11.5A0.45 0.45 0 0 1 16.5 11.05A0.45 0.45 0 0 1 16.95 11.5ZM19.95 11.5A0.45 0.45 0 0 1 19.5 11.95A0.45 0.45 0 0 1 19.05 11.5A0.45 0.45 0 0 1 19.5 11.05A0.45 0.45 0 0 1 19.95 11.5ZM21.95 11.5A0.45 0.45 0 0 1 21.5 11.95A0.45 0.45 0 0 1 21.05 11.5A0.45 0.45 0 0 1 21.5 11.05A0.45 0.45 0 0 1 21.95 11.5ZM22.95 11.5A0.45 0.45 0 0 1 22.5 11.95A0.45 0.45 0 0 1 22.05 11.5A0.45 0.45 0 0 1 22.5 11.05A0.45 0.45 0 0 1 22.95 11.5ZM23.95 11.5A0.45 0.45 0 0 1 23.5 11.95A0.45 0.45 0 0 1 23.05 11.5A0.45 0.45 0 0 1 23.5 11.05A0.45 0.45 0 0 1 23.95 11.5ZM28.95 11.5A0.45 0.45 0 0 1 28.5 11.95A0.45 0.45 0 0 1 28.05 11.5A0.45 0.45 0 0 1 28.5 11.05A0.45 0.45 0 0 1 28.95 11.5ZM31.95 11.5A0.45 0.45 0 0 1 31.5 11.95A0.45 0.45 0 0 1 31.05 11.5A0.45 0.45 0 0 1 31.5 11.05A0.45 0.45 0 0 1 31.95 11.5ZM34.95 11.5A0.45 0.45 0 0 1 34.5 11.95A0.45 0.45 0 0 1 34.05 11.5A0.45 0.45 0 0 1 34.5 11.05A0.45 0.45 0 0 1 34.95 11.5ZM35.95 11.5A0.45 0.45 0 0 1 35.5 11.95A0.45 0.45 0 0 1 35.05 11.5A0.45 0.45 0 0 1 35.5 11.05A0.45 0.45 0 0 1 35.95 11.5ZM6.95 12.5A0.45 0.45 0 0 1 6.5 12.95A0.45 0.45 0 0 1 6.05 12.5A0.45 0.45 0 0 1 6.5 12.05A0.45 0.45 0 0 1 6.95 12.5ZM7.95 12.5A0.45 0.45 0 0 1 7.5 12.95A0.45 0.45 0 0 1 7.05 12.5A0.45 0.45 0 0 1 7.5 12.05A0.45 0.45 0 0 1 7.95 12.5ZM8.95 12.5A0.45 0.45 0 0 1 8.5 12.95A0.45 0.45 0 0 1 8.05 12.5A0.45 0.45 0 0 1 8.5 12.05A0.45 0.45 0 0 1 8.95 12.5ZM9.95 12.5A0.45 0.45 0 0 1 9.5 12.95A0.45 0.45 0 0 1 9.05 12.5A0.45 0.45 0 0 1 9.5 12.05A0.45 0.45 0 0 1 9.95 12.5ZM12.95 12.5A0.45 0.45 0 0 1 12.5 12.95A0.45 0.45 0 0 1 12.05 12.5A0.45 0.45 0 0 1 12.5 12.05A0.45 0.45 0 0 1 12.95 12.5ZM15.95 12.5A0.45 0.45 0 0 1 15.5 12.95A0.45 0.45 0 0 1 15.05 12.5A0.45 0.45 0 0 1 15.5 12.05A0.45 0.45 0 0 1 15.95 12.5ZM16.95 12.5A0.45 0.45 0 0 1 16.5 12.95A0.45 0.45 0 0 1 16.05 12.5A0.45 0.45 0 0 1 16.5 12.05A0.45 0.45 0 0 1 16.95 12.5ZM21.95 12.5A0.45 0.45 0 0 1 21.5 12.95A0.45 0.45 0 0 1 21.05 12.5A0.45 0.45 0 0 1 21.5 12.05A0.45 0.45 0 0 1 21.95 12.5ZM22.95 12.5A0.45 0.45 0 0 1 22.5 12.95A0.45 0.45 0 0 1 22.05 12.5A0.45 0.45 0 0 1 22.5 12.05A0.45 0.45 0 0 1 22.95 12.5ZM24.95 12.5A0.45 0.45 0 0 1 24.5 12.95A0.45 0.45 0 0 1 24.05 12.5A0.45 0.45 0 0 1 24.5 12.05A0.45 0.45 0 0 1 24.95 12.5ZM26.95 12.5A0.45 0.45 0 0 1 26.5 12.95A0.45 0.45 0 0 1 26.05 12.5A0.45 0.45 0 0 1 26.5 12.05A0.45 0.45 0 0 1 26.95 12.5ZM27.95 12.5A0.45 0.45 0 0 1 27.5 12.95A0.45 0.45 0 0 1 27.05 12.5A0.45 0.45 0 0 1 27.5 12.05A0.45 0.45 0 0 1 27.95 12.5ZM28.95 12.5A0.45 0.45 0 0 1 28.5 12.95A0.45 0.45 0 0 1 28.05 12.5A0.45 0.45 0 0 1 28.5 12.05A0.45 0.45 0 0 1 28.95 12.5ZM29.95 12.5A0.45 0.45 0 0 1 29.5 12.95A0.45 0.45 0 0 1 29.05 12.5A0.45 0.45 0 0 1 29.5 12.05A0.45 0.45 0 0 1 29.95 12.5ZM30.95 12.5A0.45 0.45 0 0 1 30.5 12.95A0.45 0.45 0 0 1 30.05 12.5A0.45 0.45 0 0 1 30.5 12.05A0.45 0.45 0 0 1 30.95 12.5ZM32.95 12.5A0.45 0.45 0 0 1 32.5 12.95A0.45 0.45 0 0 1 32.05 12.5A0.45 0.45 0 0 1 32.5 12.05A0.45 0.45 0 0 1 32.95 12.5ZM34.95 12.5A0.45 0.45 0 0 1 34.5 12.95A0.45 0.45 0 0 1 34.05 12.5A0.45 0.45 0 0 1 34.5 12.05A0.45 0.45 0 0 1 34.95 12.5ZM36.95 12.5A0.45 0.45 0 0 1 36.5 12.95A0.45 0.45 0 0 1 36.05 12.5A0.45 0.45 0 0 1 36.5 12.05A0.45 0.45 0 0 1 36.95 12.5ZM0.95 13.5A0.45 0.45 0 0 1 0.5 13.95A0.45 0.45 0 0 1 0.05 13.5A0.45 0.45 0 0 1 0.5 13.05A0.45 0.45 0 0 1 0.95 13.5ZM1.95 13.5A0.45 0.45 0 0 1 1.5 13.95A0.45 0.45 0 0 1 1.05 13.5A0.45 0.45 0 0 1 1.5 13.05A0.45 0.45 0 0 1 1.95 13.5ZM2.95 13.5A0.45 0.45 0 0 1 2.5 13.95A0.45 0.45 0 0 1 2.05 13.5A0.45 0.45 0 0 1 2.5 13.05A0.45 0.45 0 0 1 2.95 13.5ZM7.95 13.5A0.45 0.45 0 0 1 7.5 13.95A0.45 0.45 0 0 1 7.05 13.5A0.45 0.45 0 0 1 7.5 13.05A0.45 0.45 0 0 1 7.95 13.5ZM8.95 13.5A0.45 0.45 0 0 1 8.5 13.95A0.45 0.45 0 0 1 8.05 13.5A0.45 0.45 0 0 1 8.5 13.05A0.45 0.45 0 0 1 8.95 13.5ZM14.95 13.5A0.45 0.45 0 0 1 14.5 13.95A0.45 0.45 0 0 1 14.05 13.5A0.45 0.45 0 0 1 14.5 13.05A0.45 0.45 0 0 1 14.95 13.5ZM15.95 13.5A0.45 0.45 0 0 1 15.5 13.95A0.45 0.45 0 0 1 15.05 13.5A0.45 0.45 0 0 1 15.5 13.05A0.45 0.45 0 0 1 15.95 13.5ZM19.95 13.5A0.45 0.45 0 0 1 19.5 13.95A0.45 0.45 0 0 1 19.05 13.5A0.45 0.45 0 0 1 19.5 13.05A0.45 0.45 0 0 1 19.95 13.5ZM21.95 13.5A0.45 0.45 0 0 1 21.5 13.95A0.45 0.45 0 0 1 21.05 13.5A0.45 0.45 0 0 1 21.5 13.05A0.45 0.45 0 0 1 21.95 13.5ZM23.95 13.5A0.45 0.45 0 0 1 23.5 13.95A0.45 0.45 0 0 1 23.05 13.5A0.45 0.45 0 0 1 23.5 13.05A0.45 0.45 0 0 1 23.95 13.5ZM26.95 13.5A0.45 0.45 0 0 1 26.5 13.95A0.45 0.45 0 0 1 26.05 13.5A0.45 0.45 0 0 1 26.5 13.05A0.45 0.45 0 0 1 26.95 13.5ZM27.95 13.5A0.45 0.45 0 0 1 27.5 13.95A0.45 0.45 0 0 1 27.05 13.5A0.45 0.45 0 0 1 27.5 13.05A0.45 0.45 0 0 1 27.95 13.5ZM29.95 13.5A0.45 0.45 0 0 1 29.5 13.95A0.45 0.45 0 0 1 29.05 13.5A0.45 0.45 0 0 1 29.5 13.05A0.45 0.45 0 0 1 29.95 13.5ZM31.95 13.5A0.45 0.45 0 0 1 31.5 13.95A0.45 0.45 0 0 1 31.05 13.5A0.45 0.45 0 0 1 31.5 13.05A0.45 0.45 0 0 1 31.95 13.5ZM32.95 13.5A0.45 0.45 0 0 1 32.5 13.95A0.45 0.45 0 0 1 32.05 13.5A0.45 0.45 0 0 1 32.5 13.05A0.45 0.45 0 0 1 32.95 13.5ZM33.95 13.5A0.45 0.45 0 0 1 33.5 13.95A0.45 0.45 0 0 1 33.05 13.5A0.45 0.45 0 0 1 33.5 13.05A0.45 0.45 0 0 1 33.95 13.5ZM35.95 13.5A0.45 0.45 0 0 1 35.5 13.95A0.45 0.45 0 0 1 35.05 13.5A0.45 0.45 0 0 1 35.5 13.05A0.45 0.45 0 0 1 35.95 13.5ZM36.95 13.5A0.45 0.45 0 0 1 36.5 13.95A0.45 0.45 0 0 1 36.05 13.5A0.45 0.45 0 0 1 36.5 13.05A0.45 0.45 0 0 1 36.95 13.5ZM2.95 14.5A0.45 0.45 0 0 1 2.5 14.95A0.45 0.45 0 0 1 2.05 14.5A0.45 0.45 0 0 1 2.5 14.05A0.45 0.45 0 0 1 2.95 14.5ZM6.95 14.5A0.45 0.45 0 0 1 6.5 14.95A0.45 0.45 0 0 1 6.05 14.5A0.45 0.45 0 0 1 6.5 14.05A0.45 0.45 0 0 1 6.95 14.5ZM7.95 14.5A0.45 0.45 0 0 1 7.5 14.95A0.45 0.45 0 0 1 7.05 14.5A0.45 0.45 0 0 1 7.5 14.05A0.45 0.45 0 0 1 7.95 14.5ZM8.95 14.5A0.45 0.45 0 0 1 8.5 14.95A0.45 0.45 0 0 1 8.05 14.5A0.45 0.45 0 0 1 8.5 14.05A0.45 0.45 0 0 1 8.95 14.5ZM9.95 14.5A0.45 0.45 0 0 1 9.5 14.95A0.45 0.45 0 0 1 9.05 14.5A0.45 0.45 0 0 1 9.5 14.05A0.45 0.45 0 0 1 9.95 14.5ZM11.95 14.5A0.45 0.45 0 0 1 11.5 14.95A0.45 0.45 0 0 1 11.05 14.5A0.45 0.45 0 0 1 11.5 14.05A0.45 0.45 0 0 1 11.95 14.5ZM12.95 14.5A0.45 0.45 0 0 1 12.5 14.95A0.45 0.45 0 0 1 12.05 14.5A0.45 0.45 0 0 1 12.5 14.05A0.45 0.45 0 0 1 12.95 14.5ZM13.95 14.5A0.45 0.45 0 0 1 13.5 14.95A0.45 0.45 0 0 1 13.05 14.5A0.45 0.45 0 0 1 13.5 14.05A0.45 0.45 0 0 1 13.95 14.5ZM14.95 14.5A0.45 0.45 0 0 1 14.5 14.95A0.45 0.45 0 0 1 14.05 14.5A0.45 0.45 0 0 1 14.5 14.05A0.45 0.45 0 0 1 14.95 14.5ZM15.95 14.5A0.45 0.45 0 0 1 15.5 14.95A0.45 0.45 0 0 1 15.05 14.5A0.45 0.45 0 0 1 15.5 14.05A0.45 0.45 0 0 1 15.95 14.5ZM17.95 14.5A0.45 0.45 0 0 1 17.5 14.95A0.45 0.45 0 0 1 17.05 14.5A0.45 0.45 0 0 1 17.5 14.05A0.45 0.45 0 0 1 17.95 14.5ZM22.95 14.5A0.45 0.45 0 0 1 22.5 14.95A0.45 0.45 0 0 1 22.05 14.5A0.45 0.45 0 0 1 22.5 14.05A0.45 0.45 0 0 1 22.95 14.5ZM24.95 14.5A0.45 0.45 0 0 1 24.5 14.95A0.45 0.45 0 0 1 24.05 14.5A0.45 0.45 0 0 1 24.5 14.05A0.45 0.45 0 0 1 24.95 14.5ZM25.95 14.5A0.45 0.45 0 0 1 25.5 14.95A0.45 0.45 0 0 1 25.05 14.5A0.45 0.45 0 0 1 25.5 14.05A0.45 0.45 0 0 1 25.95 14.5ZM26.95 14.5A0.45 0.45 0 0 1 26.5 14.95A0.45 0.45 0 0 1 26.05 14.5A0.45 0.45 0 0 1 26.5 14.05A0.45 0.45 0 0 1 26.95 14.5ZM27.95 14.5A0.45 0.45 0 0 1 27.5 14.95A0.45 0.45 0 0 1 27.05 14.5A0.45 0.45 0 0 1 27.5 14.05A0.45 0.45 0 0 1 27.95 14.5ZM29.95 14.5A0.45 0.45 0 0 1 29.5 14.95A0.45 0.45 0 0 1 29.05 14.5A0.45 0.45 0 0 1 29.5 14.05A0.45 0.45 0 0 1 29.95 14.5ZM30.95 14.5A0.45 0.45 0 0 1 30.5 14.95A0.45 0.45 0 0 1 30.05 14.5A0.45 0.45 0 0 1 30.5 14.05A0.45 0.45 0 0 1 30.95 14.5ZM32.95 14.5A0.45 0.45 0 0 1 32.5 14.95A0.45 0.45 0 0 1 32.05 14.5A0.45 0.45 0 0 1 32.5 14.05A0.45 0.45 0 0 1 32.95 14.5ZM33.95 14.5A0.45 0.45 0 0 1 33.5 14.95A0.45 0.45 0 0 1 33.05 14.5A0.45 0.45 0 0 1 33.5 14.05A0.45 0.45 0 0 1 33.95 14.5ZM34.95 14.5A0.45 0.45 0 0 1 34.5 14.95A0.45 0.45 0 0 1 34.05 14.5A0.45 0.45 0 0 1 34.5 14.05A0.45 0.45 0 0 1 34.95 14.5ZM0.95 15.5A0.45 0.45 0 0 1 0.5 15.95A0.45 0.45 0 0 1 0.05 15.5A0.45 0.45 0 0 1 0.5 15.05A0.45 0.45 0 0 1 0.95 15.5ZM1.95 15.5A0.45 0.45 0 0 1 1.5 15.95A0.45 0.45 0 0 1 1.05 15.5A0.45 0.45 0 0 1 1.5 15.05A0.45 0.45 0 0 1 1.95 15.5ZM3.95 15.5A0.45 0.45 0 0 1 3.5 15.95A0.45 0.45 0 0 1 3.05 15.5A0.45 0.45 0 0 1 3.5 15.05A0.45 0.45 0 0 1 3.95 15.5ZM5.95 15.5A0.45 0.45 0 0 1 5.5 15.95A0.45 0.45 0 0 1 5.05 15.5A0.45 0.45 0 0 1 5.5 15.05A0.45 0.45 0 0 1 5.95 15.5ZM7.95 15.5A0.45 0.45 0 0 1 7.5 15.95A0.45 0.45 0 0 1 7.05 15.5A0.45 0.45 0 0 1 7.5 15.05A0.45 0.45 0 0 1 7.95 15.5ZM8.95 15.5A0.45 0.45 0 0 1 8.5 15.95A0.45 0.45 0 0 1 8.05 15.5A0.45 0.45 0 0 1 8.5 15.05A0.45 0.45 0 0 1 8.95 15.5ZM10.95 15.5A0.45 0.45 0 0 1 10.5 15.95A0.45 0.45 0 0 1 10.05 15.5A0.45 0.45 0 0 1 10.5 15.05A0.45 0.45 0 0 1 10.95 15.5ZM11.95 15.5A0.45 0.45 0 0 1 11.5 15.95A0.45 0.45 0 0 1 11.05 15.5A0.45 0.45 0 0 1 11.5 15.05A0.45 0.45 0 0 1 11.95 15.5ZM13.95 15.5A0.45 0.45 0 0 1 13.5 15.95A0.45 0.45 0 0 1 13.05 15.5A0.45 0.45 0 0 1 13.5 15.05A0.45 0.45 0 0 1 13.95 15.5ZM16.95 15.5A0.45 0.45 0 0 1 16.5 15.95A0.45 0.45 0 0 1 16.05 15.5A0.45 0.45 0 0 1 16.5 15.05A0.45 0.45 0 0 1 16.95 15.5ZM18.95 15.5A0.45 0.45 0 0 1 18.5 15.95A0.45 0.45 0 0 1 18.05 15.5A0.45 0.45 0 0 1 18.5 15.05A0.45 0.45 0 0 1 18.95 15.5ZM19.95 15.5A0.45 0.45 0 0 1 19.5 15.95A0.45 0.45 0 0 1 19.05 15.5A0.45 0.45 0 0 1 19.5 15.05A0.45 0.45 0 0 1 19.95 15.5ZM20.95 15.5A0.45 0.45 0 0 1 20.5 15.95A0.45 0.45 0 0 1 20.05 15.5A0.45 0.45 0 0 1 20.5 15.05A0.45 0.45 0 0 1 20.95 15.5ZM21.95 15.5A0.45 0.45 0 0 1 21.5 15.95A0.45 0.45 0 0 1 21.05 15.5A0.45 0.45 0 0 1 21.5 15.05A0.45 0.45 0 0 1 21.95 15.5ZM22.95 15.5A0.45 0.45 0 0 1 22.5 15.95A0.45 0.45 0 0 1 22.05 15.5A0.45 0.45 0 0 1 22.5 15.05A0.45 0.45 0 0 1 22.95 15.5ZM23.95 15.5A0.45 0.45 0 0 1 23.5 15.95A0.45 0.45 0 0 1 23.05 15.5A0.45 0.45 0 0 1 23.5 15.05A0.45 0.45 0 0 1 23.95 15.5ZM24.95 15.5A0.45 0.45 0 0 1 24.5 15.95A0.45 0.45 0 0 1 24.05 15.5A0.45 0.45 0 0 1 24.5 15.05A0.45 0.45 0 0 1 24.95 15.5ZM26.95 15.5A0.45 0.45 0 0 1 26.5 15.95A0.45 0.45 0 0 1 26.05 15.5A0.45 0.45 0 0 1 26.5 15.05A0.45 0.45 0 0 1 26.95 15.5ZM28.95 15.5A0.45 0.45 0 0 1 28.5 15.95A0.45 0.45 0 0 1 28.05 15.5A0.45 0.45 0 0 1 28.5 15.05A0.45 0.45 0 0 1 28.95 15.5ZM30.95 15.5A0.45 0.45 0 0 1 30.5 15.95A0.45 0.45 0 0 1 30.05 15.5A0.45 0.45 0 0 1 30.5 15.05A0.45 0.45 0 0 1 30.95 15.5ZM31.95 15.5A0.45 0.45 0 0 1 31.5 15.95A0.45 0.45 0 0 1 31.05 15.5A0.45 0.45 0 0 1 31.5 15.05A0.45 0.45 0 0 1 31.95 15.5ZM34.95 15.5A0.45 0.45 0 0 1 34.5 15.95A0.45 0.45 0 0 1 34.05 15.5A0.45 0.45 0 0 1 34.5 15.05A0.45 0.45 0 0 1 34.95 15.5ZM3.95 16.5A0.45 0.45 0 0 1 3.5 16.95A0.45 0.45 0 0 1 3.05 16.5A0.45 0.45 0 0 1 3.5 16.05A0.45 0.45 0 0 1 3.95 16.5ZM5.95 16.5A0.45 0.45 0 0 1 5.5 16.95A0.45 0.45 0 0 1 5.05 16.5A0.45 0.45 0 0 1 5.5 16.05A0.45 0.45 0 0 1 5.95 16.5ZM6.95 16.5A0.45 0.45 0 0 1 6.5 16.95A0.45 0.45 0 0 1 6.05 16.5A0.45 0.45 0 0 1 6.5 16.05A0.45 0.45 0 0 1 6.95 16.5ZM9.95 16.5A0.45 0.45 0 0 1 9.5 16.95A0.45 0.45 0 0 1 9.05 16.5A0.45 0.45 0 0 1 9.5 16.05A0.45 0.45 0 0 1 9.95 16.5ZM10.95 16.5A0.45 0.45 0 0 1 10.5 16.95A0.45 0.45 0 0 1 10.05 16.5A0.45 0.45 0 0 1 10.5 16.05A0.45 0.45 0 0 1 10.95 16.5ZM11.95 16.5A0.45 0.45 0 0 1 11.5 16.95A0.45 0.45 0 0 1 11.05 16.5A0.45 0.45 0 0 1 11.5 16.05A0.45 0.45 0 0 1 11.95 16.5ZM12.95 16.5A0.45 0.45 0 0 1 12.5 16.95A0.45 0.45 0 0 1 12.05 16.5A0.45 0.45 0 0 1 12.5 16.05A0.45 0.45 0 0 1 12.95 16.5ZM13.95 16.5A0.45 0.45 0 0 1 13.5 16.95A0.45 0.45 0 0 1 13.05 16.5A0.45 0.45 0 0 1 13.5 16.05A0.45 0.45 0 0 1 13.95 16.5ZM14.95 16.5A0.45 0.45 0 0 1 14.5 16.95A0.45 0.45 0 0 1 14.05 16.5A0.45 0.45 0 0 1 14.5 16.05A0.45 0.45 0 0 1 14.95 16.5ZM15.95 16.5A0.45 0.45 0 0 1 15.5 16.95A0.45 0.45 0 0 1 15.05 16.5A0.45 0.45 0 0 1 15.5 16.05A0.45 0.45 0 0 1 15.95 16.5ZM17.95 16.5A0.45 0.45 0 0 1 17.5 16.95A0.45 0.45 0 0 1 17.05 16.5A0.45 0.45 0 0 1 17.5 16.05A0.45 0.45 0 0 1 17.95 16.5ZM18.95 16.5A0.45 0.45 0 0 1 18.5 16.95A0.45 0.45 0 0 1 18.05 16.5A0.45 0.45 0 0 1 18.5 16.05A0.45 0.45 0 0 1 18.95 16.5ZM20.95 16.5A0.45 0.45 0 0 1 20.5 16.95A0.45 0.45 0 0 1 20.05 16.5A0.45 0.45 0 0 1 20.5 16.05A0.45 0.45 0 0 1 20.95 16.5ZM21.95 16.5A0.45 0.45 0 0 1 21.5 16.95A0.45 0.45 0 0 1 21.05 16.5A0.45 0.45 0 0 1 21.5 16.05A0.45 0.45 0 0 1 21.95 16.5ZM22.95 16.5A0.45 0.45 0 0 1 22.5 16.95A0.45 0.45 0 0 1 22.05 16.5A0.45 0.45 0 0 1 22.5 16.05A0.45 0.45 0 0 1 22.95 16.5ZM24.95 16.5A0.45 0.45 0 0 1 24.5 16.95A0.45 0.45 0 0 1 24.05 16.5A0.45 0.45 0 0 1 24.5 16.05A0.45 0.45 0 0 1 24.95 16.5ZM25.95 16.5A0.45 0.45 0 0 1 25.5 16.95A0.45 0.45 0 0 1 25.05 16.5A0.45 0.45 0 0 1 25.5 16.05A0.45 0.45 0 0 1 25.95 16.5ZM27.95 16.5A0.45 0.45 0 0 1 27.5 16.95A0.45 0.45 0 0 1 27.05 16.5A0.45 0.45 0 0 1 27.5 16.05A0.45 0.45 0 0 1 27.95 16.5ZM28.95 16.5A0.45 0.45 0 0 1 28.5 16.95A0.45 0.45 0 0 1 28.05 16.5A0.45 0.45 0 0 1 28.5 16.05A0.45 0.45 0 0 1 28.95 16.5ZM30.95 16.5A0.45 0.45 0 0 1 30.5 16.95A0.45 0.45 0 0 1 30.05 16.5A0.45 0.45 0 0 1 30.5 16.05A0.45 0.45 0 0 1 30.95 16.5ZM31.95 16.5A0.45 0.45 0 0 1 31.5 16.95A0.45 0.45 0 0 1 31.05 16.5A0.45 0.45 0 0 1 31.5 16.05A0.45 0.45 0 0 1 31.95 16.5ZM34.95 16.5A0.45 0.45 0 0 1 34.5 16.95A0.45 0.45 0 0 1 34.05 16.5A0.45 0.45 0 0 1 34.5 16.05A0.45 0.45 0 0 1 34.95 16.5ZM35.95 16.5A0.45 0.45 0 0 1 35.5 16.95A0.45 0.45 0 0 1 35.05 16.5A0.45 0.45 0 0 1 35.5 16.05A0.45 0.45 0 0 1 35.95 16.5ZM36.95 16.5A0.45 0.45 0 0 1 36.5 16.95A0.45 0.45 0 0 1 36.05 16.5A0.45 0.45 0 0 1 36.5 16.05A0.45 0.45 0 0 1 36.95 16.5ZM0.95 17.5A0.45 0.45 0 0 1 0.5 17.95A0.45 0.45 0 0 1 0.05 17.5A0.45 0.45 0 0 1 0.5 17.05A0.45 0.45 0 0 1 0.95 17.5ZM1.95 17.5A0.45 0.45 0 0 1 1.5 17.95A0.45 0.45 0 0 1 1.05 17.5A0.45 0.45 0 0 1 1.5 17.05A0.45 0.45 0 0 1 1.95 17.5ZM5.95 17.5A0.45 0.45 0 0 1 5.5 17.95A0.45 0.45 0 0 1 5.05 17.5A0.45 0.45 0 0 1 5.5 17.05A0.45 0.45 0 0 1 5.95 17.5ZM8.95 17.5A0.45 0.45 0 0 1 8.5 17.95A0.45 0.45 0 0 1 8.05 17.5A0.45 0.45 0 0 1 8.5 17.05A0.45 0.45 0 0 1 8.95 17.5ZM10.95 17.5A0.45 0.45 0 0 1 10.5 17.95A0.45 0.45 0 0 1 10.05 17.5A0.45 0.45 0 0 1 10.5 17.05A0.45 0.45 0 0 1 10.95 17.5ZM12.95 17.5A0.45 0.45 0 0 1 12.5 17.95A0.45 0.45 0 0 1 12.05 17.5A0.45 0.45 0 0 1 12.5 17.05A0.45 0.45 0 0 1 12.95 17.5ZM15.95 17.5A0.45 0.45 0 0 1 15.5 17.95A0.45 0.45 0 0 1 15.05 17.5A0.45 0.45 0 0 1 15.5 17.05A0.45 0.45 0 0 1 15.95 17.5ZM16.95 17.5A0.45 0.45 0 0 1 16.5 17.95A0.45 0.45 0 0 1 16.05 17.5A0.45 0.45 0 0 1 16.5 17.05A0.45 0.45 0 0 1 16.95 17.5ZM18.95 17.5A0.45 0.45 0 0 1 18.5 17.95A0.45 0.45 0 0 1 18.05 17.5A0.45 0.45 0 0 1 18.5 17.05A0.45 0.45 0 0 1 18.95 17.5ZM20.95 17.5A0.45 0.45 0 0 1 20.5 17.95A0.45 0.45 0 0 1 20.05 17.5A0.45 0.45 0 0 1 20.5 17.05A0.45 0.45 0 0 1 20.95 17.5ZM21.95 17.5A0.45 0.45 0 0 1 21.5 17.95A0.45 0.45 0 0 1 21.05 17.5A0.45 0.45 0 0 1 21.5 17.05A0.45 0.45 0 0 1 21.95 17.5ZM23.95 17.5A0.45 0.45 0 0 1 23.5 17.95A0.45 0.45 0 0 1 23.05 17.5A0.45 0.45 0 0 1 23.5 17.05A0.45 0.45 0 0 1 23.95 17.5ZM24.95 17.5A0.45 0.45 0 0 1 24.5 17.95A0.45 0.45 0 0 1 24.05 17.5A0.45 0.45 0 0 1 24.5 17.05A0.45 0.45 0 0 1 24.95 17.5ZM30.95 17.5A0.45 0.45 0 0 1 30.5 17.95A0.45 0.45 0 0 1 30.05 17.5A0.45 0.45 0 0 1 30.5 17.05A0.45 0.45 0 0 1 30.95 17.5ZM36.95 17.5A0.45 0.45 0 0 1 36.5 17.95A0.45 0.45 0 0 1 36.05 17.5A0.45 0.45 0 0 1 36.5 17.05A0.45 0.45 0 0 1 36.95 17.5ZM2.95 18.5A0.45 0.45 0 0 1 2.5 18.95A0.45 0.45 0 0 1 2.05 18.5A0.45 0.45 0 0 1 2.5 18.05A0.45 0.45 0 0 1 2.95 18.5ZM4.95 18.5A0.45 0.45 0 0 1 4.5 18.95A0.45 0.45 0 0 1 4.05 18.5A0.45 0.45 0 0 1 4.5 18.05A0.45 0.45 0 0 1 4.95 18.5ZM6.95 18.5A0.45 0.45 0 0 1 6.5 18.95A0.45 0.45 0 0 1 6.05 18.5A0.45 0.45 0 0 1 6.5 18.05A0.45 0.45 0 0 1 6.95 18.5ZM8.95 18.5A0.45 0.45 0 0 1 8.5 18.95A0.45 0.45 0 0 1 8.05 18.5A0.45 0.45 0 0 1 8.5 18.05A0.45 0.45 0 0 1 8.95 18.5ZM12.95 18.5A0.45 0.45 0 0 1 12.5 18.95A0.45 0.45 0 0 1 12.05 18.5A0.45 0.45 0 0 1 12.5 18.05A0.45 0.45 0 0 1 12.95 18.5ZM13.95 18.5A0.45 0.45 0 0 1 13.5 18.95A0.45 0.45 0 0 1 13.05 18.5A0.45 0.45 0 0 1 13.5 18.05A0.45 0.45 0 0 1 13.95 18.5ZM14.95 18.5A0.45 0.45 0 0 1 14.5 18.95A0.45 0.45 0 0 1 14.05 18.5A0.45 0.45 0 0 1 14.5 18.05A0.45 0.45 0 0 1 14.95 18.5ZM15.95 18.5A0.45 0.45 0 0 1 15.5 18.95A0.45 0.45 0 0 1 15.05 18.5A0.45 0.45 0 0 1 15.5 18.05A0.45 0.45 0 0 1 15.95 18.5ZM16.95 18.5A0.45 0.45 0 0 1 16.5 18.95A0.45 0.45 0 0 1 16.05 18.5A0.45 0.45 0 0 1 16.5 18.05A0.45 0.45 0 0 1 16.95 18.5ZM17.95 18.5A0.45 0.45 0 0 1 17.5 18.95A0.45 0.45 0 0 1 17.05 18.5A0.45 0.45 0 0 1 17.5 18.05A0.45 0.45 0 0 1 17.95 18.5ZM18.95 18.5A0.45 0.45 0 0 1 18.5 18.95A0.45 0.45 0 0 1 18.05 18.5A0.45 0.45 0 0 1 18.5 18.05A0.45 0.45 0 0 1 18.95 18.5ZM22.95 18.5A0.45 0.45 0 0 1 22.5 18.95A0.45 0.45 0 0 1 22.05 18.5A0.45 0.45 0 0 1 22.5 18.05A0.45 0.45 0 0 1 22.95 18.5ZM25.95 18.5A0.45 0.45 0 0 1 25.5 18.95A0.45 0.45 0 0 1 25.05 18.5A0.45 0.45 0 0 1 25.5 18.05A0.45 0.45 0 0 1 25.95 18.5ZM26.95 18.5A0.45 0.45 0 0 1 26.5 18.95A0.45 0.45 0 0 1 26.05 18.5A0.45 0.45 0 0 1 26.5 18.05A0.45 0.45 0 0 1 26.95 18.5ZM27.95 18.5A0.45 0.45 0 0 1 27.5 18.95A0.45 0.45 0 0 1 27.05 18.5A0.45 0.45 0 0 1 27.5 18.05A0.45 0.45 0 0 1 27.95 18.5ZM28.95 18.5A0.45 0.45 0 0 1 28.5 18.95A0.45 0.45 0 0 1 28.05 18.5A0.45 0.45 0 0 1 28.5 18.05A0.45 0.45 0 0 1 28.95 18.5ZM29.95 18.5A0.45 0.45 0 0 1 29.5 18.95A0.45 0.45 0 0 1 29.05 18.5A0.45 0.45 0 0 1 29.5 18.05A0.45 0.45 0 0 1 29.95 18.5ZM30.95 18.5A0.45 0.45 0 0 1 30.5 18.95A0.45 0.45 0 0 1 30.05 18.5A0.45 0.45 0 0 1 30.5 18.05A0.45 0.45 0 0 1 30.95 18.5ZM32.95 18.5A0.45 0.45 0 0 1 32.5 18.95A0.45 0.45 0 0 1 32.05 18.5A0.45 0.45 0 0 1 32.5 18.05A0.45 0.45 0 0 1 32.95 18.5ZM34.95 18.5A0.45 0.45 0 0 1 34.5 18.95A0.45 0.45 0 0 1 34.05 18.5A0.45 0.45 0 0 1 34.5 18.05A0.45 0.45 0 0 1 34.95 18.5ZM36.95 18.5A0.45 0.45 0 0 1 36.5 18.95A0.45 0.45 0 0 1 36.05 18.5A0.45 0.45 0 0 1 36.5 18.05A0.45 0.45 0 0 1 36.95 18.5ZM0.95 19.5A0.45 0.45 0 0 1 0.5 19.95A0.45 0.45 0 0 1 0.05 19.5A0.45 0.45 0 0 1 0.5 19.05A0.45 0.45 0 0 1 0.95 19.5ZM2.95 19.5A0.45 0.45 0 0 1 2.5 19.95A0.45 0.45 0 0 1 2.05 19.5A0.45 0.45 0 0 1 2.5 19.05A0.45 0.45 0 0 1 2.95 19.5ZM3.95 19.5A0.45 0.45 0 0 1 3.5 19.95A0.45 0.45 0 0 1 3.05 19.5A0.45 0.45 0 0 1 3.5 19.05A0.45 0.45 0 0 1 3.95 19.5ZM7.95 19.5A0.45 0.45 0 0 1 7.5 19.95A0.45 0.45 0 0 1 7.05 19.5A0.45 0.45 0 0 1 7.5 19.05A0.45 0.45 0 0 1 7.95 19.5ZM8.95 19.5A0.45 0.45 0 0 1 8.5 19.95A0.45 0.45 0 0 1 8.05 19.5A0.45 0.45 0 0 1 8.5 19.05A0.45 0.45 0 0 1 8.95 19.5ZM9.95 19.5A0.45 0.45 0 0 1 9.5 19.95A0.45 0.45 0 0 1 9.05 19.5A0.45 0.45 0 0 1 9.5 19.05A0.45 0.45 0 0 1 9.95 19.5ZM12.95 19.5A0.45 0.45 0 0 1 12.5 19.95A0.45 0.45 0 0 1 12.05 19.5A0.45 0.45 0 0 1 12.5 19.05A0.45 0.45 0 0 1 12.95 19.5ZM13.95 19.5A0.45 0.45 0 0 1 13.5 19.95A0.45 0.45 0 0 1 13.05 19.5A0.45 0.45 0 0 1 13.5 19.05A0.45 0.45 0 0 1 13.95 19.5ZM16.95 19.5A0.45 0.45 0 0 1 16.5 19.95A0.45 0.45 0 0 1 16.05 19.5A0.45 0.45 0 0 1 16.5 19.05A0.45 0.45 0 0 1 16.95 19.5ZM17.95 19.5A0.45 0.45 0 0 1 17.5 19.95A0.45 0.45 0 0 1 17.05 19.5A0.45 0.45 0 0 1 17.5 19.05A0.45 0.45 0 0 1 17.95 19.5ZM18.95 19.5A0.45 0.45 0 0 1 18.5 19.95A0.45 0.45 0 0 1 18.05 19.5A0.45 0.45 0 0 1 18.5 19.05A0.45 0.45 0 0 1 18.95 19.5ZM19.95 19.5A0.45 0.45 0 0 1 19.5 19.95A0.45 0.45 0 0 1 19.05 19.5A0.45 0.45 0 0 1 19.5 19.05A0.45 0.45 0 0 1 19.95 19.5ZM20.95 19.5A0.45 0.45 0 0 1 20.5 19.95A0.45 0.45 0 0 1 20.05 19.5A0.45 0.45 0 0 1 20.5 19.05A0.45 0.45 0 0 1 20.95 19.5ZM21.95 19.5A0.45 0.45 0 0 1 21.5 19.95A0.45 0.45 0 0 1 21.05 19.5A0.45 0.45 0 0 1 21.5 19.05A0.45 0.45 0 0 1 21.95 19.5ZM22.95 19.5A0.45 0.45 0 0 1 22.5 19.95A0.45 0.45 0 0 1 22.05 19.5A0.45 0.45 0 0 1 22.5 19.05A0.45 0.45 0 0 1 22.95 19.5ZM25.95 19.5A0.45 0.45 0 0 1 25.5 19.95A0.45 0.45 0 0 1 25.05 19.5A0.45 0.45 0 0 1 25.5 19.05A0.45 0.45 0 0 1 25.95 19.5ZM27.95 19.5A0.45 0.45 0 0 1 27.5 19.95A0.45 0.45 0 0 1 27.05 19.5A0.45 0.45 0 0 1 27.5 19.05A0.45 0.45 0 0 1 27.95 19.5ZM28.95 19.5A0.45 0.45 0 0 1 28.5 19.95A0.45 0.45 0 0 1 28.05 19.5A0.45 0.45 0 0 1 28.5 19.05A0.45 0.45 0 0 1 28.95 19.5ZM31.95 19.5A0.45 0.45 0 0 1 31.5 19.95A0.45 0.45 0 0 1 31.05 19.5A0.45 0.45 0 0 1 31.5 19.05A0.45 0.45 0 0 1 31.95 19.5ZM33.95 19.5A0.45 0.45 0 0 1 33.5 19.95A0.45 0.45 0 0 1 33.05 19.5A0.45 0.45 0 0 1 33.5 19.05A0.45 0.45 0 0 1 33.95 19.5ZM35.95 19.5A0.45 0.45 0 0 1 35.5 19.95A0.45 0.45 0 0 1 35.05 19.5A0.45 0.45 0 0 1 35.5 19.05A0.45 0.45 0 0 1 35.95 19.5ZM1.95 20.5A0.45 0.45 0 0 1 1.5 20.95A0.45 0.45 0 0 1 1.05 20.5A0.45 0.45 0 0 1 1.5 20.05A0.45 0.45 0 0 1 1.95 20.5ZM2.95 20.5A0.45 0.45 0 0 1 2.5 20.95A0.45 0.45 0 0 1 2.05 20.5A0.45 0.45 0 0 1 2.5 20.05A0.45 0.45 0 0 1 2.95 20.5ZM3.95 20.5A0.45 0.45 0 0 1 3.5 20.95A0.45 0.45 0 0 1 3.05 20.5A0.45 0.45 0 0 1 3.5 20.05A0.45 0.45 0 0 1 3.95 20.5ZM4.95 20.5A0.45 0.45 0 0 1 4.5 20.95A0.45 0.45 0 0 1 4.05 20.5A0.45 0.45 0 0 1 4.5 20.05A0.45 0.45 0 0 1 4.95 20.5ZM5.95 20.5A0.45 0.45 0 0 1 5.5 20.95A0.45 0.45 0 0 1 5.05 20.5A0.45 0.45 0 0 1 5.5 20.05A0.45 0.45 0 0 1 5.95 20.5ZM6.95 20.5A0.45 0.45 0 0 1 6.5 20.95A0.45 0.45 0 0 1 6.05 20.5A0.45 0.45 0 0 1 6.5 20.05A0.45 0.45 0 0 1 6.95 20.5ZM9.95 20.5A0.45 0.45 0 0 1 9.5 20.95A0.45 0.45 0 0 1 9.05 20.5A0.45 0.45 0 0 1 9.5 20.05A0.45 0.45 0 0 1 9.95 20.5ZM10.95 20.5A0.45 0.45 0 0 1 10.5 20.95A0.45 0.45 0 0 1 10.05 20.5A0.45 0.45 0 0 1 10.5 20.05A0.45 0.45 0 0 1 10.95 20.5ZM12.95 20.5A0.45 0.45 0 0 1 12.5 20.95A0.45 0.45 0 0 1 12.05 20.5A0.45 0.45 0 0 1 12.5 20.05A0.45 0.45 0 0 1 12.95 20.5ZM13.95 20.5A0.45 0.45 0 0 1 13.5 20.95A0.45 0.45 0 0 1 13.05 20.5A0.45 0.45 0 0 1 13.5 20.05A0.45 0.45 0 0 1 13.95 20.5ZM15.95 20.5A0.45 0.45 0 0 1 15.5 20.95A0.45 0.45 0 0 1 15.05 20.5A0.45 0.45 0 0 1 15.5 20.05A0.45 0.45 0 0 1 15.95 20.5ZM16.95 20.5A0.45 0.45 0 0 1 16.5 20.95A0.45 0.45 0 0 1 16.05 20.5A0.45 0.45 0 0 1 16.5 20.05A0.45 0.45 0 0 1 16.95 20.5ZM17.95 20.5A0.45 0.45 0 0 1 17.5 20.95A0.45 0.45 0 0 1 17.05 20.5A0.45 0.45 0 0 1 17.5 20.05A0.45 0.45 0 0 1 17.95 20.5ZM20.95 20.5A0.45 0.45 0 0 1 20.5 20.95A0.45 0.45 0 0 1 20.05 20.5A0.45 0.45 0 0 1 20.5 20.05A0.45 0.45 0 0 1 20.95 20.5ZM21.95 20.5A0.45 0.45 0 0 1 21.5 20.95A0.45 0.45 0 0 1 21.05 20.5A0.45 0.45 0 0 1 21.5 20.05A0.45 0.45 0 0 1 21.95 20.5ZM24.95 20.5A0.45 0.45 0 0 1 24.5 20.95A0.45 0.45 0 0 1 24.05 20.5A0.45 0.45 0 0 1 24.5 20.05A0.45 0.45 0 0 1 24.95 20.5ZM25.95 20.5A0.45 0.45 0 0 1 25.5 20.95A0.45 0.45 0 0 1 25.05 20.5A0.45 0.45 0 0 1 25.5 20.05A0.45 0.45 0 0 1 25.95 20.5ZM27.95 20.5A0.45 0.45 0 0 1 27.5 20.95A0.45 0.45 0 0 1 27.05 20.5A0.45 0.45 0 0 1 27.5 20.05A0.45 0.45 0 0 1 27.95 20.5ZM28.95 20.5A0.45 0.45 0 0 1 28.5 20.95A0.45 0.45 0 0 1 28.05 20.5A0.45 0.45 0 0 1 28.5 20.05A0.45 0.45 0 0 1 28.95 20.5ZM29.95 20.5A0.45 0.45 0 0 1 29.5 20.95A0.45 0.45 0 0 1 29.05 20.5A0.45 0.45 0 0 1 29.5 20.05A0.45 0.45 0 0 1 29.95 20.5ZM30.95 20.5A0.45 0.45 0 0 1 30.5 20.95A0.45 0.45 0 0 1 30.05 20.5A0.45 0.45 0 0 1 30.5 20.05A0.45 0.45 0 0 1 30.95 20.5ZM31.95 20.5A0.45 0.45 0 0 1 31.5 20.95A0.45 0.45 0 0 1 31.05 20.5A0.45 0.45 0 0 1 31.5 20.05A0.45 0.45 0 0 1 31.95 20.5ZM32.95 20.5A0.45 0.45 0 0 1 32.5 20.95A0.45 0.45 0 0 1 32.05 20.5A0.45 0.45 0 0 1 32.5 20.05A0.45 0.45 0 0 1 32.95 20.5ZM33.95 20.5A0.45 0.45 0 0 1 33.5 20.95A0.45 0.45 0 0 1 33.05 20.5A0.45 0.45 0 0 1 33.5 20.05A0.45 0.45 0 0 1 33.95 20.5ZM35.95 20.5A0.45 0.45 0 0 1 35.5 20.95A0.45 0.45 0 0 1 35.05 20.5A0.45 0.45 0 0 1 35.5 20.05A0.45 0.45 0 0 1 35.95 20.5ZM36.95 20.5A0.45 0.45 0 0 1 36.5 20.95A0.45 0.45 0 0 1 36.05 20.5A0.45 0.45 0 0 1 36.5 20.05A0.45 0.45 0 0 1 36.95 20.5ZM0.95 21.5A0.45 0.45 0 0 1 0.5 21.95A0.45 0.45 0 0 1 0.05 21.5A0.45 0.45 0 0 1 0.5 21.05A0.45 0.45 0 0 1 0.95 21.5ZM1.95 21.5A0.45 0.45 0 0 1 1.5 21.95A0.45 0.45 0 0 1 1.05 21.5A0.45 0.45 0 0 1 1.5 21.05A0.45 0.45 0 0 1 1.95 21.5ZM2.95 21.5A0.45 0.45 0 0 1 2.5 21.95A0.45 0.45 0 0 1 2.05 21.5A0.45 0.45 0 0 1 2.5 21.05A0.45 0.45 0 0 1 2.95 21.5ZM3.95 21.5A0.45 0.45 0 0 1 3.5 21.95A0.45 0.45 0 0 1 3.05 21.5A0.45 0.45 0 0 1 3.5 21.05A0.45 0.45 0 0 1 3.95 21.5ZM4.95 21.5A0.45 0.45 0 0 1 4.5 21.95A0.45 0.45 0 0 1 4.05 21.5A0.45 0.45 0 0 1 4.5 21.05A0.45 0.45 0 0 1 4.95 21.5ZM5.95 21.5A0.45 0.45 0 0 1 5.5 21.95A0.45 0.45 0 0 1 5.05 21.5A0.45 0.45 0 0 1 5.5 21.05A0.45 0.45 0 0 1 5.95 21.5ZM7.95 21.5A0.45 0.45 0 0 1 7.5 21.95A0.45 0.45 0 0 1 7.05 21.5A0.45 0.45 0 0 1 7.5 21.05A0.45 0.45 0 0 1 7.95 21.5ZM8.95 21.5A0.45 0.45 0 0 1 8.5 21.95A0.45 0.45 0 0 1 8.05 21.5A0.45 0.45 0 0 1 8.5 21.05A0.45 0.45 0 0 1 8.95 21.5ZM10.95 21.5A0.45 0.45 0 0 1 10.5 21.95A0.45 0.45 0 0 1 10.05 21.5A0.45 0.45 0 0 1 10.5 21.05A0.45 0.45 0 0 1 10.95 21.5ZM14.95 21.5A0.45 0.45 0 0 1 14.5 21.95A0.45 0.45 0 0 1 14.05 21.5A0.45 0.45 0 0 1 14.5 21.05A0.45 0.45 0 0 1 14.95 21.5ZM18.95 21.5A0.45 0.45 0 0 1 18.5 21.95A0.45 0.45 0 0 1 18.05 21.5A0.45 0.45 0 0 1 18.5 21.05A0.45 0.45 0 0 1 18.95 21.5ZM19.95 21.5A0.45 0.45 0 0 1 19.5 21.95A0.45 0.45 0 0 1 19.05 21.5A0.45 0.45 0 0 1 19.5 21.05A0.45 0.45 0 0 1 19.95 21.5ZM20.95 21.5A0.45 0.45 0 0 1 20.5 21.95A0.45 0.45 0 0 1 20.05 21.5A0.45 0.45 0 0 1 20.5 21.05A0.45 0.45 0 0 1 20.95 21.5ZM21.95 21.5A0.45 0.45 0 0 1 21.5 21.95A0.45 0.45 0 0 1 21.05 21.5A0.45 0.45 0 0 1 21.5 21.05A0.45 0.45 0 0 1 21.95 21.5ZM23.95 21.5A0.45 0.45 0 0 1 23.5 21.95A0.45 0.45 0 0 1 23.05 21.5A0.45 0.45 0 0 1 23.5 21.05A0.45 0.45 0 0 1 23.95 21.5ZM26.95 21.5A0.45 0.45 0 0 1 26.5 21.95A0.45 0.45 0 0 1 26.05 21.5A0.45 0.45 0 0 1 26.5 21.05A0.45 0.45 0 0 1 26.95 21.5ZM27.95 21.5A0.45 0.45 0 0 1 27.5 21.95A0.45 0.45 0 0 1 27.05 21.5A0.45 0.45 0 0 1 27.5 21.05A0.45 0.45 0 0 1 27.95 21.5ZM28.95 21.5A0.45 0.45 0 0 1 28.5 21.95A0.45 0.45 0 0 1 28.05 21.5A0.45 0.45 0 0 1 28.5 21.05A0.45 0.45 0 0 1 28.95 21.5ZM35.95 21.5A0.45 0.45 0 0 1 35.5 21.95A0.45 0.45 0 0 1 35.05 21.5A0.45 0.45 0 0 1 35.5 21.05A0.45 0.45 0 0 1 35.95 21.5ZM36.95 21.5A0.45 0.45 0 0 1 36.5 21.95A0.45 0.45 0 0 1 36.05 21.5A0.45 0.45 0 0 1 36.5 21.05A0.45 0.45 0 0 1 36.95 21.5ZM1.95 22.5A0.45 0.45 0 0 1 1.5 22.95A0.45 0.45 0 0 1 1.05 22.5A0.45 0.45 0 0 1 1.5 22.05A0.45 0.45 0 0 1 1.95 22.5ZM2.95 22.5A0.45 0.45 0 0 1 2.5 22.95A0.45 0.45 0 0 1 2.05 22.5A0.45 0.45 0 0 1 2.5 22.05A0.45 0.45 0 0 1 2.95 22.5ZM3.95 22.5A0.45 0.45 0 0 1 3.5 22.95A0.45 0.45 0 0 1 3.05 22.5A0.45 0.45 0 0 1 3.5 22.05A0.45 0.45 0 0 1 3.95 22.5ZM4.95 22.5A0.45 0.45 0 0 1 4.5 22.95A0.45 0.45 0 0 1 4.05 22.5A0.45 0.45 0 0 1 4.5 22.05A0.45 0.45 0 0 1 4.95 22.5ZM6.95 22.5A0.45 0.45 0 0 1 6.5 22.95A0.45 0.45 0 0 1 6.05 22.5A0.45 0.45 0 0 1 6.5 22.05A0.45 0.45 0 0 1 6.95 22.5ZM7.95 22.5A0.45 0.45 0 0 1 7.5 22.95A0.45 0.45 0 0 1 7.05 22.5A0.45 0.45 0 0 1 7.5 22.05A0.45 0.45 0 0 1 7.95 22.5ZM8.95 22.5A0.45 0.45 0 0 1 8.5 22.95A0.45 0.45 0 0 1 8.05 22.5A0.45 0.45 0 0 1 8.5 22.05A0.45 0.45 0 0 1 8.95 22.5ZM10.95 22.5A0.45 0.45 0 0 1 10.5 22.95A0.45 0.45 0 0 1 10.05 22.5A0.45 0.45 0 0 1 10.5 22.05A0.45 0.45 0 0 1 10.95 22.5ZM11.95 22.5A0.45 0.45 0 0 1 11.5 22.95A0.45 0.45 0 0 1 11.05 22.5A0.45 0.45 0 0 1 11.5 22.05A0.45 0.45 0 0 1 11.95 22.5ZM12.95 22.5A0.45 0.45 0 0 1 12.5 22.95A0.45 0.45 0 0 1 12.05 22.5A0.45 0.45 0 0 1 12.5 22.05A0.45 0.45 0 0 1 12.95 22.5ZM13.95 22.5A0.45 0.45 0 0 1 13.5 22.95A0.45 0.45 0 0 1 13.05 22.5A0.45 0.45 0 0 1 13.5 22.05A0.45 0.45 0 0 1 13.95 22.5ZM14.95 22.5A0.45 0.45 0 0 1 14.5 22.95A0.45 0.45 0 0 1 14.05 22.5A0.45 0.45 0 0 1 14.5 22.05A0.45 0.45 0 0 1 14.95 22.5ZM15.95 22.5A0.45 0.45 0 0 1 15.5 22.95A0.45 0.45 0 0 1 15.05 22.5A0.45 0.45 0 0 1 15.5 22.05A0.45 0.45 0 0 1 15.95 22.5ZM16.95 22.5A0.45 0.45 0 0 1 16.5 22.95A0.45 0.45 0 0 1 16.05 22.5A0.45 0.45 0 0 1 16.5 22.05A0.45 0.45 0 0 1 16.95 22.5ZM17.95 22.5A0.45 0.45 0 0 1 17.5 22.95A0.45 0.45 0 0 1 17.05 22.5A0.45 0.45 0 0 1 17.5 22.05A0.45 0.45 0 0 1 17.95 22.5ZM20.95 22.5A0.45 0.45 0 0 1 20.5 22.95A0.45 0.45 0 0 1 20.05 22.5A0.45 0.45 0 0 1 20.5 22.05A0.45 0.45 0 0 1 20.95 22.5ZM22.95 22.5A0.45 0.45 0 0 1 22.5 22.95A0.45 0.45 0 0 1 22.05 22.5A0.45 0.45 0 0 1 22.5 22.05A0.45 0.45 0 0 1 22.95 22.5ZM23.95 22.5A0.45 0.45 0 0 1 23.5 22.95A0.45 0.45 0 0 1 23.05 22.5A0.45 0.45 0 0 1 23.5 22.05A0.45 0.45 0 0 1 23.95 22.5ZM24.95 22.5A0.45 0.45 0 0 1 24.5 22.95A0.45 0.45 0 0 1 24.05 22.5A0.45 0.45 0 0 1 24.5 22.05A0.45 0.45 0 0 1 24.95 22.5ZM25.95 22.5A0.45 0.45 0 0 1 25.5 22.95A0.45 0.45 0 0 1 25.05 22.5A0.45 0.45 0 0 1 25.5 22.05A0.45 0.45 0 0 1 25.95 22.5ZM26.95 22.5A0.45 0.45 0 0 1 26.5 22.95A0.45 0.45 0 0 1 26.05 22.5A0.45 0.45 0 0 1 26.5 22.05A0.45 0.45 0 0 1 26.95 22.5ZM28.95 22.5A0.45 0.45 0 0 1 28.5 22.95A0.45 0.45 0 0 1 28.05 22.5A0.45 0.45 0 0 1 28.5 22.05A0.45 0.45 0 0 1 28.95 22.5ZM29.95 22.5A0.45 0.45 0 0 1 29.5 22.95A0.45 0.45 0 0 1 29.05 22.5A0.45 0.45 0 0 1 29.5 22.05A0.45 0.45 0 0 1 29.95 22.5ZM30.95 22.5A0.45 0.45 0 0 1 30.5 22.95A0.45 0.45 0 0 1 30.05 22.5A0.45 0.45 0 0 1 30.5 22.05A0.45 0.45 0 0 1 30.95 22.5ZM31.95 22.5A0.45 0.45 0 0 1 31.5 22.95A0.45 0.45 0 0 1 31.05 22.5A0.45 0.45 0 0 1 31.5 22.05A0.45 0.45 0 0 1 31.95 22.5ZM32.95 22.5A0.45 0.45 0 0 1 32.5 22.95A0.45 0.45 0 0 1 32.05 22.5A0.45 0.45 0 0 1 32.5 22.05A0.45 0.45 0 0 1 32.95 22.5ZM33.95 22.5A0.45 0.45 0 0 1 33.5 22.95A0.45 0.45 0 0 1 33.05 22.5A0.45 0.45 0 0 1 33.5 22.05A0.45 0.45 0 0 1 33.95 22.5ZM34.95 22.5A0.45 0.45 0 0 1 34.5 22.95A0.45 0.45 0 0 1 34.05 22.5A0.45 0.45 0 0 1 34.5 22.05A0.45 0.45 0 0 1 34.95 22.5ZM35.95 22.5A0.45 0.45 0 0 1 35.5 22.95A0.45 0.45 0 0 1 35.05 22.5A0.45 0.45 0 0 1 35.5 22.05A0.45 0.45 0 0 1 35.95 22.5ZM36.95 22.5A0.45 0.45 0 0 1 36.5 22.95A0.45 0.45 0 0 1 36.05 22.5A0.45 0.45 0 0 1 36.5 22.05A0.45 0.45 0 0 1 36.95 22.5ZM1.95 23.5A0.45 0.45 0 0 1 1.5 23.95A0.45 0.45 0 0 1 1.05 23.5A0.45 0.45 0 0 1 1.5 23.05A0.45 0.45 0 0 1 1.95 23.5ZM3.95 23.5A0.45 0.45 0 0 1 3.5 23.95A0.45 0.45 0 0 1 3.05 23.5A0.45 0.45 0 0 1 3.5 23.05A0.45 0.45 0 0 1 3.95 23.5ZM4.95 23.5A0.45 0.45 0 0 1 4.5 23.95A0.45 0.45 0 0 1 4.05 23.5A0.45 0.45 0 0 1 4.5 23.05A0.45 0.45 0 0 1 4.95 23.5ZM7.95 23.5A0.45 0.45 0 0 1 7.5 23.95A0.45 0.45 0 0 1 7.05 23.5A0.45 0.45 0 0 1 7.5 23.05A0.45 0.45 0 0 1 7.95 23.5ZM8.95 23.5A0.45 0.45 0 0 1 8.5 23.95A0.45 0.45 0 0 1 8.05 23.5A0.45 0.45 0 0 1 8.5 23.05A0.45 0.45 0 0 1 8.95 23.5ZM9.95 23.5A0.45 0.45 0 0 1 9.5 23.95A0.45 0.45 0 0 1 9.05 23.5A0.45 0.45 0 0 1 9.5 23.05A0.45 0.45 0 0 1 9.95 23.5ZM10.95 23.5A0.45 0.45 0 0 1 10.5 23.95A0.45 0.45 0 0 1 10.05 23.5A0.45 0.45 0 0 1 10.5 23.05A0.45 0.45 0 0 1 10.95 23.5ZM11.95 23.5A0.45 0.45 0 0 1 11.5 23.95A0.45 0.45 0 0 1 11.05 23.5A0.45 0.45 0 0 1 11.5 23.05A0.45 0.45 0 0 1 11.95 23.5ZM13.95 23.5A0.45 0.45 0 0 1 13.5 23.95A0.45 0.45 0 0 1 13.05 23.5A0.45 0.45 0 0 1 13.5 23.05A0.45 0.45 0 0 1 13.95 23.5ZM14.95 23.5A0.45 0.45 0 0 1 14.5 23.95A0.45 0.45 0 0 1 14.05 23.5A0.45 0.45 0 0 1 14.5 23.05A0.45 0.45 0 0 1 14.95 23.5ZM16.95 23.5A0.45 0.45 0 0 1 16.5 23.95A0.45 0.45 0 0 1 16.05 23.5A0.45 0.45 0 0 1 16.5 23.05A0.45 0.45 0 0 1 16.95 23.5ZM17.95 23.5A0.45 0.45 0 0 1 17.5 23.95A0.45 0.45 0 0 1 17.05 23.5A0.45 0.45 0 0 1 17.5 23.05A0.45 0.45 0 0 1 17.95 23.5ZM18.95 23.5A0.45 0.45 0 0 1 18.5 23.95A0.45 0.45 0 0 1 18.05 23.5A0.45 0.45 0 0 1 18.5 23.05A0.45 0.45 0 0 1 18.95 23.5ZM19.95 23.5A0.45 0.45 0 0 1 19.5 23.95A0.45 0.45 0 0 1 19.05 23.5A0.45 0.45 0 0 1 19.5 23.05A0.45 0.45 0 0 1 19.95 23.5ZM20.95 23.5A0.45 0.45 0 0 1 20.5 23.95A0.45 0.45 0 0 1 20.05 23.5A0.45 0.45 0 0 1 20.5 23.05A0.45 0.45 0 0 1 20.95 23.5ZM21.95 23.5A0.45 0.45 0 0 1 21.5 23.95A0.45 0.45 0 0 1 21.05 23.5A0.45 0.45 0 0 1 21.5 23.05A0.45 0.45 0 0 1 21.95 23.5ZM22.95 23.5A0.45 0.45 0 0 1 22.5 23.95A0.45 0.45 0 0 1 22.05 23.5A0.45 0.45 0 0 1 22.5 23.05A0.45 0.45 0 0 1 22.95 23.5ZM31.95 23.5A0.45 0.45 0 0 1 31.5 23.95A0.45 0.45 0 0 1 31.05 23.5A0.45 0.45 0 0 1 31.5 23.05A0.45 0.45 0 0 1 31.95 23.5ZM33.95 23.5A0.45 0.45 0 0 1 33.5 23.95A0.45 0.45 0 0 1 33.05 23.5A0.45 0.45 0 0 1 33.5 23.05A0.45 0.45 0 0 1 33.95 23.5ZM35.95 23.5A0.45 0.45 0 0 1 35.5 23.95A0.45 0.45 0 0 1 35.05 23.5A0.45 0.45 0 0 1 35.5 23.05A0.45 0.45 0 0 1 35.95 23.5ZM0.95 24.5A0.45 0.45 0 0 1 0.5 24.95A0.45 0.45 0 0 1 0.05 24.5A0.45 0.45 0 0 1 0.5 24.05A0.45 0.45 0 0 1 0.95 24.5ZM1.95 24.5A0.45 0.45 0 0 1 1.5 24.95A0.45 0.45 0 0 1 1.05 24.5A0.45 0.45 0 0 1 1.5 24.05A0.45 0.45 0 0 1 1.95 24.5ZM2.95 24.5A0.45 0.45 0 0 1 2.5 24.95A0.45 0.45 0 0 1 2.05 24.5A0.45 0.45 0 0 1 2.5 24.05A0.45 0.45 0 0 1 2.95 24.5ZM5.95 24.5A0.45 0.45 0 0 1 5.5 24.95A0.45 0.45 0 0 1 5.05 24.5A0.45 0.45 0 0 1 5.5 24.05A0.45 0.45 0 0 1 5.95 24.5ZM6.95 24.5A0.45 0.45 0 0 1 6.5 24.95A0.45 0.45 0 0 1 6.05 24.5A0.45 0.45 0 0 1 6.5 24.05A0.45 0.45 0 0 1 6.95 24.5ZM7.95 24.5A0.45 0.45 0 0 1 7.5 24.95A0.45 0.45 0 0 1 7.05 24.5A0.45 0.45 0 0 1 7.5 24.05A0.45 0.45 0 0 1 7.95 24.5ZM9.95 24.5A0.45 0.45 0 0 1 9.5 24.95A0.45 0.45 0 0 1 9.05 24.5A0.45 0.45 0 0 1 9.5 24.05A0.45 0.45 0 0 1 9.95 24.5ZM10.95 24.5A0.45 0.45 0 0 1 10.5 24.95A0.45 0.45 0 0 1 10.05 24.5A0.45 0.45 0 0 1 10.5 24.05A0.45 0.45 0 0 1 10.95 24.5ZM15.95 24.5A0.45 0.45 0 0 1 15.5 24.95A0.45 0.45 0 0 1 15.05 24.5A0.45 0.45 0 0 1 15.5 24.05A0.45 0.45 0 0 1 15.95 24.5ZM18.95 24.5A0.45 0.45 0 0 1 18.5 24.95A0.45 0.45 0 0 1 18.05 24.5A0.45 0.45 0 0 1 18.5 24.05A0.45 0.45 0 0 1 18.95 24.5ZM20.95 24.5A0.45 0.45 0 0 1 20.5 24.95A0.45 0.45 0 0 1 20.05 24.5A0.45 0.45 0 0 1 20.5 24.05A0.45 0.45 0 0 1 20.95 24.5ZM27.95 24.5A0.45 0.45 0 0 1 27.5 24.95A0.45 0.45 0 0 1 27.05 24.5A0.45 0.45 0 0 1 27.5 24.05A0.45 0.45 0 0 1 27.95 24.5ZM30.95 24.5A0.45 0.45 0 0 1 30.5 24.95A0.45 0.45 0 0 1 30.05 24.5A0.45 0.45 0 0 1 30.5 24.05A0.45 0.45 0 0 1 30.95 24.5ZM31.95 24.5A0.45 0.45 0 0 1 31.5 24.95A0.45 0.45 0 0 1 31.05 24.5A0.45 0.45 0 0 1 31.5 24.05A0.45 0.45 0 0 1 31.95 24.5ZM35.95 24.5A0.45 0.45 0 0 1 35.5 24.95A0.45 0.45 0 0 1 35.05 24.5A0.45 0.45 0 0 1 35.5 24.05A0.45 0.45 0 0 1 35.95 24.5ZM36.95 24.5A0.45 0.45 0 0 1 36.5 24.95A0.45 0.45 0 0 1 36.05 24.5A0.45 0.45 0 0 1 36.5 24.05A0.45 0.45 0 0 1 36.95 24.5ZM0.95 25.5A0.45 0.45 0 0 1 0.5 25.95A0.45 0.45 0 0 1 0.05 25.5A0.45 0.45 0 0 1 0.5 25.05A0.45 0.45 0 0 1 0.95 25.5ZM1.95 25.5A0.45 0.45 0 0 1 1.5 25.95A0.45 0.45 0 0 1 1.05 25.5A0.45 0.45 0 0 1 1.5 25.05A0.45 0.45 0 0 1 1.95 25.5ZM2.95 25.5A0.45 0.45 0 0 1 2.5 25.95A0.45 0.45 0 0 1 2.05 25.5A0.45 0.45 0 0 1 2.5 25.05A0.45 0.45 0 0 1 2.95 25.5ZM5.95 25.5A0.45 0.45 0 0 1 5.5 25.95A0.45 0.45 0 0 1 5.05 25.5A0.45 0.45 0 0 1 5.5 25.05A0.45 0.45 0 0 1 5.95 25.5ZM9.95 25.5A0.45 0.45 0 0 1 9.5 25.95A0.45 0.45 0 0 1 9.05 25.5A0.45 0.45 0 0 1 9.5 25.05A0.45 0.45 0 0 1 9.95 25.5ZM14.95 25.5A0.45 0.45 0 0 1 14.5 25.95A0.45 0.45 0 0 1 14.05 25.5A0.45 0.45 0 0 1 14.5 25.05A0.45 0.45 0 0 1 14.95 25.5ZM16.95 25.5A0.45 0.45 0 0 1 16.5 25.95A0.45 0.45 0 0 1 16.05 25.5A0.45 0.45 0 0 1 16.5 25.05A0.45 0.45 0 0 1 16.95 25.5ZM20.95 25.5A0.45 0.45 0 0 1 20.5 25.95A0.45 0.45 0 0 1 20.05 25.5A0.45 0.45 0 0 1 20.5 25.05A0.45 0.45 0 0 1 20.95 25.5ZM21.95 25.5A0.45 0.45 0 0 1 21.5 25.95A0.45 0.45 0 0 1 21.05 25.5A0.45 0.45 0 0 1 21.5 25.05A0.45 0.45 0 0 1 21.95 25.5ZM22.95 25.5A0.45 0.45 0 0 1 22.5 25.95A0.45 0.45 0 0 1 22.05 25.5A0.45 0.45 0 0 1 22.5 25.05A0.45 0.45 0 0 1 22.95 25.5ZM24.95 25.5A0.45 0.45 0 0 1 24.5 25.95A0.45 0.45 0 0 1 24.05 25.5A0.45 0.45 0 0 1 24.5 25.05A0.45 0.45 0 0 1 24.95 25.5ZM26.95 25.5A0.45 0.45 0 0 1 26.5 25.95A0.45 0.45 0 0 1 26.05 25.5A0.45 0.45 0 0 1 26.5 25.05A0.45 0.45 0 0 1 26.95 25.5ZM28.95 25.5A0.45 0.45 0 0 1 28.5 25.95A0.45 0.45 0 0 1 28.05 25.5A0.45 0.45 0 0 1 28.5 25.05A0.45 0.45 0 0 1 28.95 25.5ZM29.95 25.5A0.45 0.45 0 0 1 29.5 25.95A0.45 0.45 0 0 1 29.05 25.5A0.45 0.45 0 0 1 29.5 25.05A0.45 0.45 0 0 1 29.95 25.5ZM30.95 25.5A0.45 0.45 0 0 1 30.5 25.95A0.45 0.45 0 0 1 30.05 25.5A0.45 0.45 0 0 1 30.5 25.05A0.45 0.45 0 0 1 30.95 25.5ZM31.95 25.5A0.45 0.45 0 0 1 31.5 25.95A0.45 0.45 0 0 1 31.05 25.5A0.45 0.45 0 0 1 31.5 25.05A0.45 0.45 0 0 1 31.95 25.5ZM32.95 25.5A0.45 0.45 0 0 1 32.5 25.95A0.45 0.45 0 0 1 32.05 25.5A0.45 0.45 0 0 1 32.5 25.05A0.45 0.45 0 0 1 32.95 25.5ZM0.95 26.5A0.45 0.45 0 0 1 0.5 26.95A0.45 0.45 0 0 1 0.05 26.5A0.45 0.45 0 0 1 0.5 26.05A0.45 0.45 0 0 1 0.95 26.5ZM3.95 26.5A0.45 0.45 0 0 1 3.5 26.95A0.45 0.45 0 0 1 3.05 26.5A0.45 0.45 0 0 1 3.5 26.05A0.45 0.45 0 0 1 3.95 26.5ZM4.95 26.5A0.45 0.45 0 0 1 4.5 26.95A0.45 0.45 0 0 1 4.05 26.5A0.45 0.45 0 0 1 4.5 26.05A0.45 0.45 0 0 1 4.95 26.5ZM6.95 26.5A0.45 0.45 0 0 1 6.5 26.95A0.45 0.45 0 0 1 6.05 26.5A0.45 0.45 0 0 1 6.5 26.05A0.45 0.45 0 0 1 6.95 26.5ZM7.95 26.5A0.45 0.45 0 0 1 7.5 26.95A0.45 0.45 0 0 1 7.05 26.5A0.45 0.45 0 0 1 7.5 26.05A0.45 0.45 0 0 1 7.95 26.5ZM8.95 26.5A0.45 0.45 0 0 1 8.5 26.95A0.45 0.45 0 0 1 8.05 26.5A0.45 0.45 0 0 1 8.5 26.05A0.45 0.45 0 0 1 8.95 26.5ZM9.95 26.5A0.45 0.45 0 0 1 9.5 26.95A0.45 0.45 0 0 1 9.05 26.5A0.45 0.45 0 0 1 9.5 26.05A0.45 0.45 0 0 1 9.95 26.5ZM10.95 26.5A0.45 0.45 0 0 1 10.5 26.95A0.45 0.45 0 0 1 10.05 26.5A0.45 0.45 0 0 1 10.5 26.05A0.45 0.45 0 0 1 10.95 26.5ZM11.95 26.5A0.45 0.45 0 0 1 11.5 26.95A0.45 0.45 0 0 1 11.05 26.5A0.45 0.45 0 0 1 11.5 26.05A0.45 0.45 0 0 1 11.95 26.5ZM12.95 26.5A0.45 0.45 0 0 1 12.5 26.95A0.45 0.45 0 0 1 12.05 26.5A0.45 0.45 0 0 1 12.5 26.05A0.45 0.45 0 0 1 12.95 26.5ZM13.95 26.5A0.45 0.45 0 0 1 13.5 26.95A0.45 0.45 0 0 1 13.05 26.5A0.45 0.45 0 0 1 13.5 26.05A0.45 0.45 0 0 1 13.95 26.5ZM14.95 26.5A0.45 0.45 0 0 1 14.5 26.95A0.45 0.45 0 0 1 14.05 26.5A0.45 0.45 0 0 1 14.5 26.05A0.45 0.45 0 0 1 14.95 26.5ZM17.95 26.5A0.45 0.45 0 0 1 17.5 26.95A0.45 0.45 0 0 1 17.05 26.5A0.45 0.45 0 0 1 17.5 26.05A0.45 0.45 0 0 1 17.95 26.5ZM20.95 26.5A0.45 0.45 0 0 1 20.5 26.95A0.45 0.45 0 0 1 20.05 26.5A0.45 0.45 0 0 1 20.5 26.05A0.45 0.45 0 0 1 20.95 26.5ZM23.95 26.5A0.45 0.45 0 0 1 23.5 26.95A0.45 0.45 0 0 1 23.05 26.5A0.45 0.45 0 0 1 23.5 26.05A0.45 0.45 0 0 1 23.95 26.5ZM24.95 26.5A0.45 0.45 0 0 1 24.5 26.95A0.45 0.45 0 0 1 24.05 26.5A0.45 0.45 0 0 1 24.5 26.05A0.45 0.45 0 0 1 24.95 26.5ZM25.95 26.5A0.45 0.45 0 0 1 25.5 26.95A0.45 0.45 0 0 1 25.05 26.5A0.45 0.45 0 0 1 25.5 26.05A0.45 0.45 0 0 1 25.95 26.5ZM26.95 26.5A0.45 0.45 0 0 1 26.5 26.95A0.45 0.45 0 0 1 26.05 26.5A0.45 0.45 0 0 1 26.5 26.05A0.45 0.45 0 0 1 26.95 26.5ZM29.95 26.5A0.45 0.45 0 0 1 29.5 26.95A0.45 0.45 0 0 1 29.05 26.5A0.45 0.45 0 0 1 29.5 26.05A0.45 0.45 0 0 1 29.95 26.5ZM30.95 26.5A0.45 0.45 0 0 1 30.5 26.95A0.45 0.45 0 0 1 30.05 26.5A0.45 0.45 0 0 1 30.5 26.05A0.45 0.45 0 0 1 30.95 26.5ZM31.95 26.5A0.45 0.45 0 0 1 31.5 26.95A0.45 0.45 0 0 1 31.05 26.5A0.45 0.45 0 0 1 31.5 26.05A0.45 0.45 0 0 1 31.95 26.5ZM32.95 26.5A0.45 0.45 0 0 1 32.5 26.95A0.45 0.45 0 0 1 32.05 26.5A0.45 0.45 0 0 1 32.5 26.05A0.45 0.45 0 0 1 32.95 26.5ZM34.95 26.5A0.45 0.45 0 0 1 34.5 26.95A0.45 0.45 0 0 1 34.05 26.5A0.45 0.45 0 0 1 34.5 26.05A0.45 0.45 0 0 1 34.95 26.5ZM36.95 26.5A0.45 0.45 0 0 1 36.5 26.95A0.45 0.45 0 0 1 36.05 26.5A0.45 0.45 0 0 1 36.5 26.05A0.45 0.45 0 0 1 36.95 26.5ZM0.95 27.5A0.45 0.45 0 0 1 0.5 27.95A0.45 0.45 0 0 1 0.05 27.5A0.45 0.45 0 0 1 0.5 27.05A0.45 0.45 0 0 1 0.95 27.5ZM3.95 27.5A0.45 0.45 0 0 1 3.5 27.95A0.45 0.45 0 0 1 3.05 27.5A0.45 0.45 0 0 1 3.5 27.05A0.45 0.45 0 0 1 3.95 27.5ZM4.95 27.5A0.45 0.45 0 0 1 4.5 27.95A0.45 0.45 0 0 1 4.05 27.5A0.45 0.45 0 0 1 4.5 27.05A0.45 0.45 0 0 1 4.95 27.5ZM5.95 27.5A0.45 0.45 0 0 1 5.5 27.95A0.45 0.45 0 0 1 5.05 27.5A0.45 0.45 0 0 1 5.5 27.05A0.45 0.45 0 0 1 5.95 27.5ZM7.95 27.5A0.45 0.45 0 0 1 7.5 27.95A0.45 0.45 0 0 1 7.05 27.5A0.45 0.45 0 0 1 7.5 27.05A0.45 0.45 0 0 1 7.95 27.5ZM10.95 27.5A0.45 0.45 0 0 1 10.5 27.95A0.45 0.45 0 0 1 10.05 27.5A0.45 0.45 0 0 1 10.5 27.05A0.45 0.45 0 0 1 10.95 27.5ZM11.95 27.5A0.45 0.45 0 0 1 11.5 27.95A0.45 0.45 0 0 1 11.05 27.5A0.45 0.45 0 0 1 11.5 27.05A0.45 0.45 0 0 1 11.95 27.5ZM13.95 27.5A0.45 0.45 0 0 1 13.5 27.95A0.45 0.45 0 0 1 13.05 27.5A0.45 0.45 0 0 1 13.5 27.05A0.45 0.45 0 0 1 13.95 27.5ZM16.95 27.5A0.45 0.45 0 0 1 16.5 27.95A0.45 0.45 0 0 1 16.05 27.5A0.45 0.45 0 0 1 16.5 27.05A0.45 0.45 0 0 1 16.95 27.5ZM17.95 27.5A0.45 0.45 0 0 1 17.5 27.95A0.45 0.45 0 0 1 17.05 27.5A0.45 0.45 0 0 1 17.5 27.05A0.45 0.45 0 0 1 17.95 27.5ZM18.95 27.5A0.45 0.45 0 0 1 18.5 27.95A0.45 0.45 0 0 1 18.05 27.5A0.45 0.45 0 0 1 18.5 27.05A0.45 0.45 0 0 1 18.95 27.5ZM19.95 27.5A0.45 0.45 0 0 1 19.5 27.95A0.45 0.45 0 0 1 19.05 27.5A0.45 0.45 0 0 1 19.5 27.05A0.45 0.45 0 0 1 19.95 27.5ZM22.95 27.5A0.45 0.45 0 0 1 22.5 27.95A0.45 0.45 0 0 1 22.05 27.5A0.45 0.45 0 0 1 22.5 27.05A0.45 0.45 0 0 1 22.95 27.5ZM26.95 27.5A0.45 0.45 0 0 1 26.5 27.95A0.45 0.45 0 0 1 26.05 27.5A0.45 0.45 0 0 1 26.5 27.05A0.45 0.45 0 0 1 26.95 27.5ZM28.95 27.5A0.45 0.45 0 0 1 28.5 27.95A0.45 0.45 0 0 1 28.05 27.5A0.45 0.45 0 0 1 28.5 27.05A0.45 0.45 0 0 1 28.95 27.5ZM33.95 27.5A0.45 0.45 0 0 1 33.5 27.95A0.45 0.45 0 0 1 33.05 27.5A0.45 0.45 0 0 1 33.5 27.05A0.45 0.45 0 0 1 33.95 27.5ZM34.95 27.5A0.45 0.45 0 0 1 34.5 27.95A0.45 0.45 0 0 1 34.05 27.5A0.45 0.45 0 0 1 34.5 27.05A0.45 0.45 0 0 1 34.95 27.5ZM0.95 28.5A0.45 0.45 0 0 1 0.5 28.95A0.45 0.45 0 0 1 0.05 28.5A0.45 0.45 0 0 1 0.5 28.05A0.45 0.45 0 0 1 0.95 28.5ZM2.95 28.5A0.45 0.45 0 0 1 2.5 28.95A0.45 0.45 0 0 1 2.05 28.5A0.45 0.45 0 0 1 2.5 28.05A0.45 0.45 0 0 1 2.95 28.5ZM3.95 28.5A0.45 0.45 0 0 1 3.5 28.95A0.45 0.45 0 0 1 3.05 28.5A0.45 0.45 0 0 1 3.5 28.05A0.45 0.45 0 0 1 3.95 28.5ZM5.95 28.5A0.45 0.45 0 0 1 5.5 28.95A0.45 0.45 0 0 1 5.05 28.5A0.45 0.45 0 0 1 5.5 28.05A0.45 0.45 0 0 1 5.95 28.5ZM6.95 28.5A0.45 0.45 0 0 1 6.5 28.95A0.45 0.45 0 0 1 6.05 28.5A0.45 0.45 0 0 1 6.5 28.05A0.45 0.45 0 0 1 6.95 28.5ZM8.95 28.5A0.45 0.45 0 0 1 8.5 28.95A0.45 0.45 0 0 1 8.05 28.5A0.45 0.45 0 0 1 8.5 28.05A0.45 0.45 0 0 1 8.95 28.5ZM12.95 28.5A0.45 0.45 0 0 1 12.5 28.95A0.45 0.45 0 0 1 12.05 28.5A0.45 0.45 0 0 1 12.5 28.05A0.45 0.45 0 0 1 12.95 28.5ZM13.95 28.5A0.45 0.45 0 0 1 13.5 28.95A0.45 0.45 0 0 1 13.05 28.5A0.45 0.45 0 0 1 13.5 28.05A0.45 0.45 0 0 1 13.95 28.5ZM14.95 28.5A0.45 0.45 0 0 1 14.5 28.95A0.45 0.45 0 0 1 14.05 28.5A0.45 0.45 0 0 1 14.5 28.05A0.45 0.45 0 0 1 14.95 28.5ZM15.95 28.5A0.45 0.45 0 0 1 15.5 28.95A0.45 0.45 0 0 1 15.05 28.5A0.45 0.45 0 0 1 15.5 28.05A0.45 0.45 0 0 1 15.95 28.5ZM16.95 28.5A0.45 0.45 0 0 1 16.5 28.95A0.45 0.45 0 0 1 16.05 28.5A0.45 0.45 0 0 1 16.5 28.05A0.45 0.45 0 0 1 16.95 28.5ZM17.95 28.5A0.45 0.45 0 0 1 17.5 28.95A0.45 0.45 0 0 1 17.05 28.5A0.45 0.45 0 0 1 17.5 28.05A0.45 0.45 0 0 1 17.95 28.5ZM25.95 28.5A0.45 0.45 0 0 1 25.5 28.95A0.45 0.45 0 0 1 25.05 28.5A0.45 0.45 0 0 1 25.5 28.05A0.45 0.45 0 0 1 25.95 28.5ZM27.95 28.5A0.45 0.45 0 0 1 27.5 28.95A0.45 0.45 0 0 1 27.05 28.5A0.45 0.45 0 0 1 27.5 28.05A0.45 0.45 0 0 1 27.95 28.5ZM28.95 28.5A0.45 0.45 0 0 1 28.5 28.95A0.45 0.45 0 0 1 28.05 28.5A0.45 0.45 0 0 1 28.5 28.05A0.45 0.45 0 0 1 28.95 28.5ZM29.95 28.5A0.45 0.45 0 0 1 29.5 28.95A0.45 0.45 0 0 1 29.05 28.5A0.45 0.45 0 0 1 29.5 28.05A0.45 0.45 0 0 1 29.95 28.5ZM30.95 28.5A0.45 0.45 0 0 1 30.5 28.95A0.45 0.45 0 0 1 30.05 28.5A0.45 0.45 0 0 1 30.5 28.05A0.45 0.45 0 0 1 30.95 28.5ZM31.95 28.5A0.45 0.45 0 0 1 31.5 28.95A0.45 0.45 0 0 1 31.05 28.5A0.45 0.45 0 0 1 31.5 28.05A0.45 0.45 0 0 1 31.95 28.5ZM32.95 28.5A0.45 0.45 0 0 1 32.5 28.95A0.45 0.45 0 0 1 32.05 28.5A0.45 0.45 0 0 1 32.5 28.05A0.45 0.45 0 0 1 32.95 28.5ZM35.95 28.5A0.45 0.45 0 0 1 35.5 28.95A0.45 0.45 0 0 1 35.05 28.5A0.45 0.45 0 0 1 35.5 28.05A0.45 0.45 0 0 1 35.95 28.5ZM36.95 28.5A0.45 0.45 0 0 1 36.5 28.95A0.45 0.45 0 0 1 36.05 28.5A0.45 0.45 0 0 1 36.5 28.05A0.45 0.45 0 0 1 36.95 28.5ZM8.95 29.5A0.45 0.45 0 0 1 8.5 29.95A0.45 0.45 0 0 1 8.05 29.5A0.45 0.45 0 0 1 8.5 29.05A0.45 0.45 0 0 1 8.95 29.5ZM14.95 29.5A0.45 0.45 0 0 1 14.5 29.95A0.45 0.45 0 0 1 14.05 29.5A0.45 0.45 0 0 1 14.5 29.05A0.45 0.45 0 0 1 14.95 29.5ZM15.95 29.5A0.45 0.45 0 0 1 15.5 29.95A0.45 0.45 0 0 1 15.05 29.5A0.45 0.45 0 0 1 15.5 29.05A0.45 0.45 0 0 1 15.95 29.5ZM20.95 29.5A0.45 0.45 0 0 1 20.5 29.95A0.45 0.45 0 0 1 20.05 29.5A0.45 0.45 0 0 1 20.5 29.05A0.45 0.45 0 0 1 20.95 29.5ZM21.95 29.5A0.45 0.45 0 0 1 21.5 29.95A0.45 0.45 0 0 1 21.05 29.5A0.45 0.45 0 0 1 21.5 29.05A0.45 0.45 0 0 1 21.95 29.5ZM27.95 29.5A0.45 0.45 0 0 1 27.5 29.95A0.45 0.45 0 0 1 27.05 29.5A0.45 0.45 0 0 1 27.5 29.05A0.45 0.45 0 0 1 27.95 29.5ZM28.95 29.5A0.45 0.45 0 0 1 28.5 29.95A0.45 0.45 0 0 1 28.05 29.5A0.45 0.45 0 0 1 28.5 29.05A0.45 0.45 0 0 1 28.95 29.5ZM32.95 29.5A0.45 0.45 0 0 1 32.5 29.95A0.45 0.45 0 0 1 32.05 29.5A0.45 0.45 0 0 1 32.5 29.05A0.45 0.45 0 0 1 32.95 29.5ZM33.95 29.5A0.45 0.45 0 0 1 33.5 29.95A0.45 0.45 0 0 1 33.05 29.5A0.45 0.45 0 0 1 33.5 29.05A0.45 0.45 0 0 1 33.95 29.5ZM36.95 29.5A0.45 0.45 0 0 1 36.5 29.95A0.45 0.45 0 0 1 36.05 29.5A0.45 0.45 0 0 1 36.5 29.05A0.45 0.45 0 0 1 36.95 29.5ZM8.95 30.5A0.45 0.45 0 0 1 8.5 30.95A0.45 0.45 0 0 1 8.05 30.5A0.45 0.45 0 0 1 8.5 30.05A0.45 0.45 0 0 1 8.95 30.5ZM10.95 30.5A0.45 0.45 0 0 1 10.5 30.95A0.45 0.45 0 0 1 10.05 30.5A0.45 0.45 0 0 1 10.5 30.05A0.45 0.45 0 0 1 10.95 30.5ZM13.95 30.5A0.45 0.45 0 0 1 13.5 30.95A0.45 0.45 0 0 1 13.05 30.5A0.45 0.45 0 0 1 13.5 30.05A0.45 0.45 0 0 1 13.95 30.5ZM14.95 30.5A0.45 0.45 0 0 1 14.5 30.95A0.45 0.45 0 0 1 14.05 30.5A0.45 0.45 0 0 1 14.5 30.05A0.45 0.45 0 0 1 14.95 30.5ZM17.95 30.5A0.45 0.45 0 0 1 17.5 30.95A0.45 0.45 0 0 1 17.05 30.5A0.45 0.45 0 0 1 17.5 30.05A0.45 0.45 0 0 1 17.95 30.5ZM18.95 30.5A0.45 0.45 0 0 1 18.5 30.95A0.45 0.45 0 0 1 18.05 30.5A0.45 0.45 0 0 1 18.5 30.05A0.45 0.45 0 0 1 18.95 30.5ZM20.95 30.5A0.45 0.45 0 0 1 20.5 30.95A0.45 0.45 0 0 1 20.05 30.5A0.45 0.45 0 0 1 20.5 30.05A0.45 0.45 0 0 1 20.95 30.5ZM23.95 30.5A0.45 0.45 0 0 1 23.5 30.95A0.45 0.45 0 0 1 23.05 30.5A0.45 0.45 0 0 1 23.5 30.05A0.45 0.45 0 0 1 23.95 30.5ZM25.95 30.5A0.45 0.45 0 0 1 25.5 30.95A0.45 0.45 0 0 1 25.05 30.5A0.45 0.45 0 0 1 25.5 30.05A0.45 0.45 0 0 1 25.95 30.5ZM27.95 30.5A0.45 0.45 0 0 1 27.5 30.95A0.45 0.45 0 0 1 27.05 30.5A0.45 0.45 0 0 1 27.5 30.05A0.45 0.45 0 0 1 27.95 30.5ZM28.95 30.5A0.45 0.45 0 0 1 28.5 30.95A0.45 0.45 0 0 1 28.05 30.5A0.45 0.45 0 0 1 28.5 30.05A0.45 0.45 0 0 1 28.95 30.5ZM30.95 30.5A0.45 0.45 0 0 1 30.5 30.95A0.45 0.45 0 0 1 30.05 30.5A0.45 0.45 0 0 1 30.5 30.05A0.45 0.45 0 0 1 30.95 30.5ZM32.95 30.5A0.45 0.45 0 0 1 32.5 30.95A0.45 0.45 0 0 1 32.05 30.5A0.45 0.45 0 0 1 32.5 30.05A0.45 0.45 0 0 1 32.95 30.5ZM34.95 30.5A0.45 0.45 0 0 1 34.5 30.95A0.45 0.45 0 0 1 34.05 30.5A0.45 0.45 0 0 1 34.5 30.05A0.45 0.45 0 0 1 34.95 30.5ZM35.95 30.5A0.45 0.45 0 0 1 35.5 30.95A0.45 0.45 0 0 1 35.05 30.5A0.45 0.45 0 0 1 35.5 30.05A0.45 0.45 0 0 1 35.95 30.5ZM36.95 30.5A0.45 0.45 0 0 1 36.5 30.95A0.45 0.45 0 0 1 36.05 30.5A0.45 0.45 0 0 1 36.5 30.05A0.45 0.45 0 0 1 36.95 30.5ZM9.95 31.5A0.45 0.45 0 0 1 9.5 31.95A0.45 0.45 0 0 1 9.05 31.5A0.45 0.45 0 0 1 9.5 31.05A0.45 0.45 0 0 1 9.95 31.5ZM10.95 31.5A0.45 0.45 0 0 1 10.5 31.95A0.45 0.45 0 0 1 10.05 31.5A0.45 0.45 0 0 1 10.5 31.05A0.45 0.45 0 0 1 10.95 31.5ZM11.95 31.5A0.45 0.45 0 0 1 11.5 31.95A0.45 0.45 0 0 1 11.05 31.5A0.45 0.45 0 0 1 11.5 31.05A0.45 0.45 0 0 1 11.95 31.5ZM14.95 31.5A0.45 0.45 0 0 1 14.5 31.95A0.45 0.45 0 0 1 14.05 31.5A0.45 0.45 0 0 1 14.5 31.05A0.45 0.45 0 0 1 14.95 31.5ZM15.95 31.5A0.45 0.45 0 0 1 15.5 31.95A0.45 0.45 0 0 1 15.05 31.5A0.45 0.45 0 0 1 15.5 31.05A0.45 0.45 0 0 1 15.95 31.5ZM16.95 31.5A0.45 0.45 0 0 1 16.5 31.95A0.45 0.45 0 0 1 16.05 31.5A0.45 0.45 0 0 1 16.5 31.05A0.45 0.45 0 0 1 16.95 31.5ZM17.95 31.5A0.45 0.45 0 0 1 17.5 31.95A0.45 0.45 0 0 1 17.05 31.5A0.45 0.45 0 0 1 17.5 31.05A0.45 0.45 0 0 1 17.95 31.5ZM18.95 31.5A0.45 0.45 0 0 1 18.5 31.95A0.45 0.45 0 0 1 18.05 31.5A0.45 0.45 0 0 1 18.5 31.05A0.45 0.45 0 0 1 18.95 31.5ZM19.95 31.5A0.45 0.45 0 0 1 19.5 31.95A0.45 0.45 0 0 1 19.05 31.5A0.45 0.45 0 0 1 19.5 31.05A0.45 0.45 0 0 1 19.95 31.5ZM23.95 31.5A0.45 0.45 0 0 1 23.5 31.95A0.45 0.45 0 0 1 23.05 31.5A0.45 0.45 0 0 1 23.5 31.05A0.45 0.45 0 0 1 23.95 31.5ZM24.95 31.5A0.45 0.45 0 0 1 24.5 31.95A0.45 0.45 0 0 1 24.05 31.5A0.45 0.45 0 0 1 24.5 31.05A0.45 0.45 0 0 1 24.95 31.5ZM27.95 31.5A0.45 0.45 0 0 1 27.5 31.95A0.45 0.45 0 0 1 27.05 31.5A0.45 0.45 0 0 1 27.5 31.05A0.45 0.45 0 0 1 27.95 31.5ZM28.95 31.5A0.45 0.45 0 0 1 28.5 31.95A0.45 0.45 0 0 1 28.05 31.5A0.45 0.45 0 0 1 28.5 31.05A0.45 0.45 0 0 1 28.95 31.5ZM32.95 31.5A0.45 0.45 0 0 1 32.5 31.95A0.45 0.45 0 0 1 32.05 31.5A0.45 0.45 0 0 1 32.5 31.05A0.45 0.45 0 0 1 32.95 31.5ZM34.95 31.5A0.45 0.45 0 0 1 34.5 31.95A0.45 0.45 0 0 1 34.05 31.5A0.45 0.45 0 0 1 34.5 31.05A0.45 0.45 0 0 1 34.95 31.5ZM8.95 32.5A0.45 0.45 0 0 1 8.5 32.95A0.45 0.45 0 0 1 8.05 32.5A0.45 0.45 0 0 1 8.5 32.05A0.45 0.45 0 0 1 8.95 32.5ZM12.95 32.5A0.45 0.45 0 0 1 12.5 32.95A0.45 0.45 0 0 1 12.05 32.5A0.45 0.45 0 0 1 12.5 32.05A0.45 0.45 0 0 1 12.95 32.5ZM14.95 32.5A0.45 0.45 0 0 1 14.5 32.95A0.45 0.45 0 0 1 14.05 32.5A0.45 0.45 0 0 1 14.5 32.05A0.45 0.45 0 0 1 14.95 32.5ZM15.95 32.5A0.45 0.45 0 0 1 15.5 32.95A0.45 0.45 0 0 1 15.05 32.5A0.45 0.45 0 0 1 15.5 32.05A0.45 0.45 0 0 1 15.95 32.5ZM17.95 32.5A0.45 0.45 0 0 1 17.5 32.95A0.45 0.45 0 0 1 17.05 32.5A0.45 0.45 0 0 1 17.5 32.05A0.45 0.45 0 0 1 17.95 32.5ZM22.95 32.5A0.45 0.45 0 0 1 22.5 32.95A0.45 0.45 0 0 1 22.05 32.5A0.45 0.45 0 0 1 22.5 32.05A0.45 0.45 0 0 1 22.95 32.5ZM25.95 32.5A0.45 0.45 0 0 1 25.5 32.95A0.45 0.45 0 0 1 25.05 32.5A0.45 0.45 0 0 1 25.5 32.05A0.45 0.45 0 0 1 25.95 32.5ZM26.95 32.5A0.45 0.45 0 0 1 26.5 32.95A0.45 0.45 0 0 1 26.05 32.5A0.45 0.45 0 0 1 26.5 32.05A0.45 0.45 0 0 1 26.95 32.5ZM27.95 32.5A0.45 0.45 0 0 1 27.5 32.95A0.45 0.45 0 0 1 27.05 32.5A0.45 0.45 0 0 1 27.5 32.05A0.45 0.45 0 0 1 27.95 32.5ZM28.95 32.5A0.45 0.45 0 0 1 28.5 32.95A0.45 0.45 0 0 1 28.05 32.5A0.45 0.45 0 0 1 28.5 32.05A0.45 0.45 0 0 1 28.95 32.5ZM29.95 32.5A0.45 0.45 0 0 1 29.5 32.95A0.45 0.45 0 0 1 29.05 32.5A0.45 0.45 0 0 1 29.5 32.05A0.45 0.45 0 0 1 29.95 32.5ZM30.95 32.5A0.45 0.45 0 0 1 30.5 32.95A0.45 0.45 0 0 1 30.05 32.5A0.45 0.45 0 0 1 30.5 32.05A0.45 0.45 0 0 1 30.95 32.5ZM31.95 32.5A0.45 0.45 0 0 1 31.5 32.95A0.45 0.45 0 0 1 31.05 32.5A0.45 0.45 0 0 1 31.5 32.05A0.45 0.45 0 0 1 31.95 32.5ZM32.95 32.5A0.45 0.45 0 0 1 32.5 32.95A0.45 0.45 0 0 1 32.05 32.5A0.45 0.45 0 0 1 32.5 32.05A0.45 0.45 0 0 1 32.95 32.5ZM34.95 32.5A0.45 0.45 0 0 1 34.5 32.95A0.45 0.45 0 0 1 34.05 32.5A0.45 0.45 0 0 1 34.5 32.05A0.45 0.45 0 0 1 34.95 32.5ZM8.95 33.5A0.45 0.45 0 0 1 8.5 33.95A0.45 0.45 0 0 1 8.05 33.5A0.45 0.45 0 0 1 8.5 33.05A0.45 0.45 0 0 1 8.95 33.5ZM10.95 33.5A0.45 0.45 0 0 1 10.5 33.95A0.45 0.45 0 0 1 10.05 33.5A0.45 0.45 0 0 1 10.5 33.05A0.45 0.45 0 0 1 10.95 33.5ZM12.95 33.5A0.45 0.45 0 0 1 12.5 33.95A0.45 0.45 0 0 1 12.05 33.5A0.45 0.45 0 0 1 12.5 33.05A0.45 0.45 0 0 1 12.95 33.5ZM14.95 33.5A0.45 0.45 0 0 1 14.5 33.95A0.45 0.45 0 0 1 14.05 33.5A0.45 0.45 0 0 1 14.5 33.05A0.45 0.45 0 0 1 14.95 33.5ZM19.95 33.5A0.45 0.45 0 0 1 19.5 33.95A0.45 0.45 0 0 1 19.05 33.5A0.45 0.45 0 0 1 19.5 33.05A0.45 0.45 0 0 1 19.95 33.5ZM20.95 33.5A0.45 0.45 0 0 1 20.5 33.95A0.45 0.45 0 0 1 20.05 33.5A0.45 0.45 0 0 1 20.5 33.05A0.45 0.45 0 0 1 20.95 33.5ZM21.95 33.5A0.45 0.45 0 0 1 21.5 33.95A0.45 0.45 0 0 1 21.05 33.5A0.45 0.45 0 0 1 21.5 33.05A0.45 0.45 0 0 1 21.95 33.5ZM22.95 33.5A0.45 0.45 0 0 1 22.5 33.95A0.45 0.45 0 0 1 22.05 33.5A0.45 0.45 0 0 1 22.5 33.05A0.45 0.45 0 0 1 22.95 33.5ZM28.95 33.5A0.45 0.45 0 0 1 28.5 33.95A0.45 0.45 0 0 1 28.05 33.5A0.45 0.45 0 0 1 28.5 33.05A0.45 0.45 0 0 1 28.95 33.5ZM29.95 33.5A0.45 0.45 0 0 1 29.5 33.95A0.45 0.45 0 0 1 29.05 33.5A0.45 0.45 0 0 1 29.5 33.05A0.45 0.45 0 0 1 29.95 33.5ZM31.95 33.5A0.45 0.45 0 0 1 31.5 33.95A0.45 0.45 0 0 1 31.05 33.5A0.45 0.45 0 0 1 31.5 33.05A0.45 0.45 0 0 1 31.95 33.5ZM35.95 33.5A0.45 0.45 0 0 1 35.5 33.95A0.45 0.45 0 0 1 35.05 33.5A0.45 0.45 0 0 1 35.5 33.05A0.45 0.45 0 0 1 35.95 33.5ZM36.95 33.5A0.45 0.45 0 0 1 36.5 33.95A0.45 0.45 0 0 1 36.05 33.5A0.45 0.45 0 0 1 36.5 33.05A0.45 0.45 0 0 1 36.95 33.5ZM8.95 34.5A0.45 0.45 0 0 1 8.5 34.95A0.45 0.45 0 0 1 8.05 34.5A0.45 0.45 0 0 1 8.5 34.05A0.45 0.45 0 0 1 8.95 34.5ZM9.95 34.5A0.45 0.45 0 0 1 9.5 34.95A0.45 0.45 0 0 1 9.05 34.5A0.45 0.45 0 0 1 9.5 34.05A0.45 0.45 0 0 1 9.95 34.5ZM10.95 34.5A0.45 0.45 0 0 1 10.5 34.95A0.45 0.45 0 0 1 10.05 34.5A0.45 0.45 0 0 1 10.5 34.05A0.45 0.45 0 0 1 10.95 34.5ZM11.95 34.5A0.45 0.45 0 0 1 11.5 34.95A0.45 0.45 0 0 1 11.05 34.5A0.45 0.45 0 0 1 11.5 34.05A0.45 0.45 0 0 1 11.95 34.5ZM12.95 34.5A0.45 0.45 0 0 1 12.5 34.95A0.45 0.45 0 0 1 12.05 34.5A0.45 0.45 0 0 1 12.5 34.05A0.45 0.45 0 0 1 12.95 34.5ZM13.95 34.5A0.45 0.45 0 0 1 13.5 34.95A0.45 0.45 0 0 1 13.05 34.5A0.45 0.45 0 0 1 13.5 34.05A0.45 0.45 0 0 1 13.95 34.5ZM16.95 34.5A0.45 0.45 0 0 1 16.5 34.95A0.45 0.45 0 0 1 16.05 34.5A0.45 0.45 0 0 1 16.5 34.05A0.45 0.45 0 0 1 16.95 34.5ZM20.95 34.5A0.45 0.45 0 0 1 20.5 34.95A0.45 0.45 0 0 1 20.05 34.5A0.45 0.45 0 0 1 20.5 34.05A0.45 0.45 0 0 1 20.95 34.5ZM25.95 34.5A0.45 0.45 0 0 1 25.5 34.95A0.45 0.45 0 0 1 25.05 34.5A0.45 0.45 0 0 1 25.5 34.05A0.45 0.45 0 0 1 25.95 34.5ZM26.95 34.5A0.45 0.45 0 0 1 26.5 34.95A0.45 0.45 0 0 1 26.05 34.5A0.45 0.45 0 0 1 26.5 34.05A0.45 0.45 0 0 1 26.95 34.5ZM29.95 34.5A0.45 0.45 0 0 1 29.5 34.95A0.45 0.45 0 0 1 29.05 34.5A0.45 0.45 0 0 1 29.5 34.05A0.45 0.45 0 0 1 29.95 34.5ZM30.95 34.5A0.45 0.45 0 0 1 30.5 34.95A0.45 0.45 0 0 1 30.05 34.5A0.45 0.45 0 0 1 30.5 34.05A0.45 0.45 0 0 1 30.95 34.5ZM34.95 34.5A0.45 0.45 0 0 1 34.5 34.95A0.45 0.45 0 0 1 34.05 34.5A0.45 0.45 0 0 1 34.5 34.05A0.45 0.45 0 0 1 34.95 34.5ZM36.95 34.5A0.45 0.45 0 0 1 36.5 34.95A0.45 0.45 0 0 1 36.05 34.5A0.45 0.45 0 0 1 36.5 34.05A0.45 0.45 0 0 1 36.95 34.5ZM8.95 35.5A0.45 0.45 0 0 1 8.5 35.95A0.45 0.45 0 0 1 8.05 35.5A0.45 0.45 0 0 1 8.5 35.05A0.45 0.45 0 0 1 8.95 35.5ZM9.95 35.5A0.45 0.45 0 0 1 9.5 35.95A0.45 0.45 0 0 1 9.05 35.5A0.45 0.45 0 0 1 9.5 35.05A0.45 0.45 0 0 1 9.95 35.5ZM10.95 35.5A0.45 0.45 0 0 1 10.5 35.95A0.45 0.45 0 0 1 10.05 35.5A0.45 0.45 0 0 1 10.5 35.05A0.45 0.45 0 0 1 10.95 35.5ZM11.95 35.5A0.45 0.45 0 0 1 11.5 35.95A0.45 0.45 0 0 1 11.05 35.5A0.45 0.45 0 0 1 11.5 35.05A0.45 0.45 0 0 1 11.95 35.5ZM13.95 35.5A0.45 0.45 0 0 1 13.5 35.95A0.45 0.45 0 0 1 13.05 35.5A0.45 0.45 0 0 1 13.5 35.05A0.45 0.45 0 0 1 13.95 35.5ZM16.95 35.5A0.45 0.45 0 0 1 16.5 35.95A0.45 0.45 0 0 1 16.05 35.5A0.45 0.45 0 0 1 16.5 35.05A0.45 0.45 0 0 1 16.95 35.5ZM18.95 35.5A0.45 0.45 0 0 1 18.5 35.95A0.45 0.45 0 0 1 18.05 35.5A0.45 0.45 0 0 1 18.5 35.05A0.45 0.45 0 0 1 18.95 35.5ZM19.95 35.5A0.45 0.45 0 0 1 19.5 35.95A0.45 0.45 0 0 1 19.05 35.5A0.45 0.45 0 0 1 19.5 35.05A0.45 0.45 0 0 1 19.95 35.5ZM20.95 35.5A0.45 0.45 0 0 1 20.5 35.95A0.45 0.45 0 0 1 20.05 35.5A0.45 0.45 0 0 1 20.5 35.05A0.45 0.45 0 0 1 20.95 35.5ZM23.95 35.5A0.45 0.45 0 0 1 23.5 35.95A0.45 0.45 0 0 1 23.05 35.5A0.45 0.45 0 0 1 23.5 35.05A0.45 0.45 0 0 1 23.95 35.5ZM27.95 35.5A0.45 0.45 0 0 1 27.5 35.95A0.45 0.45 0 0 1 27.05 35.5A0.45 0.45 0 0 1 27.5 35.05A0.45 0.45 0 0 1 27.95 35.5ZM28.95 35.5A0.45 0.45 0 0 1 28.5 35.95A0.45 0.45 0 0 1 28.05 35.5A0.45 0.45 0 0 1 28.5 35.05A0.45 0.45 0 0 1 28.95 35.5ZM30.95 35.5A0.45 0.45 0 0 1 30.5 35.95A0.45 0.45 0 0 1 30.05 35.5A0.45 0.45 0 0 1 30.5 35.05A0.45 0.45 0 0 1 30.95 35.5ZM32.95 35.5A0.45 0.45 0 0 1 32.5 35.95A0.45 0.45 0 0 1 32.05 35.5A0.45 0.45 0 0 1 32.5 35.05A0.45 0.45 0 0 1 32.95 35.5ZM33.95 35.5A0.45 0.45 0 0 1 33.5 35.95A0.45 0.45 0 0 1 33.05 35.5A0.45 0.45 0 0 1 33.5 35.05A0.45 0.45 0 0 1 33.95 35.5ZM35.95 35.5A0.45 0.45 0 0 1 35.5 35.95A0.45 0.45 0 0 1 35.05 35.5A0.45 0.45 0 0 1 35.5 35.05A0.45 0.45 0 0 1 35.95 35.5ZM8.95 36.5A0.45 0.45 0 0 1 8.5 36.95A0.45 0.45 0 0 1 8.05 36.5A0.45 0.45 0 0 1 8.5 36.05A0.45 0.45 0 0 1 8.95 36.5ZM12.95 36.5A0.45 0.45 0 0 1 12.5 36.95A0.45 0.45 0 0 1 12.05 36.5A0.45 0.45 0 0 1 12.5 36.05A0.45 0.45 0 0 1 12.95 36.5ZM13.95 36.5A0.45 0.45 0 0 1 13.5 36.95A0.45 0.45 0 0 1 13.05 36.5A0.45 0.45 0 0 1 13.5 36.05A0.45 0.45 0 0 1 13.95 36.5ZM14.95 36.5A0.45 0.45 0 0 1 14.5 36.95A0.45 0.45 0 0 1 14.05 36.5A0.45 0.45 0 0 1 14.5 36.05A0.45 0.45 0 0 1 14.95 36.5ZM15.95 36.5A0.45 0.45 0 0 1 15.5 36.95A0.45 0.45 0 0 1 15.05 36.5A0.45 0.45 0 0 1 15.5 36.05A0.45 0.45 0 0 1 15.95 36.5ZM16.95 36.5A0.45 0.45 0 0 1 16.5 36.95A0.45 0.45 0 0 1 16.05 36.5A0.45 0.45 0 0 1 16.5 36.05A0.45 0.45 0 0 1 16.95 36.5ZM20.95 36.5A0.45 0.45 0 0 1 20.5 36.95A0.45 0.45 0 0 1 20.05 36.5A0.45 0.45 0 0 1 20.5 36.05A0.45 0.45 0 0 1 20.95 36.5ZM22.95 36.5A0.45 0.45 0 0 1 22.5 36.95A0.45 0.45 0 0 1 22.05 36.5A0.45 0.45 0 0 1 22.5 36.05A0.45 0.45 0 0 1 22.95 36.5ZM25.95 36.5A0.45 0.45 0 0 1 25.5 36.95A0.45 0.45 0 0 1 25.05 36.5A0.45 0.45 0 0 1 25.5 36.05A0.45 0.45 0 0 1 25.95 36.5ZM31.95 36.5A0.45 0.45 0 0 1 31.5 36.95A0.45 0.45 0 0 1 31.05 36.5A0.45 0.45 0 0 1 31.5 36.05A0.45 0.45 0 0 1 31.95 36.5ZM33.95 36.5A0.45 0.45 0 0 1 33.5 36.95A0.45 0.45 0 0 1 33.05 36.5A0.45 0.45 0 0 1 33.5 36.05A0.45 0.45 0 0 1 33.95 36.5ZM35.95 36.5A0.45 0.45 0 0 1 35.5 36.95A0.45 0.45 0 0 1 35.05 36.5A0.45 0.45 0 0 1 35.5 36.05A0.45 0.45 0 0 1 35.95 36.5ZM36.95 36.5A0.45 0.45 0 0 1 36.5 36.95A0.45 0.45 0 0 1 36.05 36.5A0.45 0.45 0 0 1 36.5 36.05A0.45 0.45 0 0 1 36.95 36.5ZM0 3.5C0 0 0 0 3.5 0M0 3.5C0 7 0 7 3.5 7M3.5 7C7 7 7 7 7 3.5M7 3.5C7 0 7 0 3.5 0M7 3.5A0 0 0 0 1 3.5 7A0 0 0 0 1 0 3.5A0 0 0 0 1 3.5 0A0 0 0 0 1 7 3.5ZM1 3.5C1 1 1 1 3.5 1M1 3.5C1 6 1 6 3.5 6M3.5 6C6 6 6 6 6 3.5M6 3.5C6 1 6 1 3.5 1M6 3.5A0 0 0 0 1 3.5 6A0 0 0 0 1 1 3.5A0 0 0 0 1 3.5 1A0 0 0 0 1 6 3.5ZM2 3.5C2 2 2 2 3.5 2M2 3.5C2 5 2 5 3.5 5M3.5 5C5 5 5 5 5 3.5M5 3.5C5 2 5 2 3.5 2M5 3.5A0 0 0 0 1 3.5 5A0 0 0 0 1 2 3.5A0 0 0 0 1 3.5 2A0 0 0 0 1 5 3.5ZM30 3.5C30 0 30 0 33.5 0M30 3.5C30 7 30 7 33.5 7M33.5 7C37 7 37 7 37 3.5M37 3.5C37 0 37 0 33.5 0M37 3.5A0 0 0 0 1 33.5 7A0 0 0 0 1 30 3.5A0 0 0 0 1 33.5 0A0 0 0 0 1 37 3.5ZM31 3.5C31 1 31 1 33.5 1M31 3.5C31 6 31 6 33.5 6M33.5 6C36 6 36 6 36 3.5M36 3.5C36 1 36 1 33.5 1M36 3.5A0 0 0 0 1 33.5 6A0 0 0 0 1 31 3.5A0 0 0 0 1 33.5 1A0 0 0 0 1 36 3.5ZM32 3.5C32 2 32 2 33.5 2M32 3.5C32 5 32 5 33.5 5M33.5 5C35 5 35 5 35 3.5M35 3.5C35 2 35 2 33.5 2M35 3.5A0 0 0 0 1 33.5 5A0 0 0 0 1 32 3.5A0 0 0 0 1 33.5 2A0 0 0 0 1 35 3.5ZM0 33.5C0 30 0 30 3.5 30M0 33.5C0 37 0 37 3.5 37M3.5 37C7 37 7 37 7 33.5M7 33.5C7 30 7 30 3.5 30M7 33.5A0 0 0 0 1 3.5 37A0 0 0 0 1 0 33.5A0 0 0 0 1 3.5 30A0 0 0 0 1 7 33.5ZM1 33.5C1 31 1 31 3.5 31M1 33.5C1 36 1 36 3.5 36M3.5 36C6 36 6 36 6 33.5M6 33.5C6 31 6 31 3.5 31M6 33.5A0 0 0 0 1 3.5 36A0 0 0 0 1 1 33.5A0 0 0 0 1 3.5 31A0 0 0 0 1 6 33.5ZM2 33.5C2 32 2 32 3.5 32M2 33.5C2 35 2 35 3.5 35M3.5 35C5 35 5 35 5 33.5M5 33.5C5 32 5 32 3.5 32M5 33.5A0 0 0 0 1 3.5 35A0 0 0 0 1 2 33.5A0 0 0 0 1 3.5 32A0 0 0 0 1 5 33.5Z" style="fill-rule: evenodd; fill: #003300" /></g></g></svg></g><svg><text x="50%" y="92%" style="dominant-baseline: middle; text-anchor: middle; font-weight: bold; font-size: 38.46px; fill: #00FF00; font-family: Courier New, Courier, monospace">sanag@fam</text></svg></svg>